<svg viewBox="0 0 31 22" fill="none" xmlns="http://www.w3.org/2000/svg">
<path d="M27.6113 1.12695C28.9452 1.47193 29.9957 2.48839 30.3522 3.77922C31 6.11869 31 11 31 11C31 11 31 15.8811 30.3522 18.2208C29.9957 19.5116 28.9452 20.5281 27.6113 20.8732C25.194 21.5 15.5 21.5 15.5 21.5C15.5 21.5 5.80598 21.5 3.38851 20.8732C2.05463 20.5281 1.00415 19.5116 0.647653 18.2208C0 15.8811 0 11 0 11C0 11 0 6.11869 0.647653 3.77922C1.00415 2.48839 2.05463 1.47193 3.38851 1.12695C5.80598 0.5 15.5 0.5 15.5 0.5C15.5 0.5 25.194 0.5 27.6113 1.12695Z" fill="#FF0000"/>
<path d="M12.9192 15.323V6.6759L20.6692 10.9996L12.9192 15.323Z" fill="#FF0000"/>
</svg>
