<svg width="24" height="25" viewBox="0 0 24 25" fill="none" xmlns="http://www.w3.org/2000/svg">
<g clip-path="url(#clip0_10_3071)">
<path d="M6.08577 24.1523C4.65848 24.0874 3.88314 23.8499 3.36743 23.6487C2.6841 23.3827 2.19693 23.066 1.68407 22.5538C1.17122 22.0417 0.853806 21.5545 0.589176 20.8712C0.388029 20.3555 0.150504 19.5801 0.0855946 18.1528C0.0142658 16.61 0 16.1471 0 12.2383C0 8.32943 0.0156923 7.86722 0.0848813 6.32296C0.14979 4.89567 0.388742 4.12175 0.588463 3.60462C0.854519 2.92129 1.17193 2.43411 1.68336 1.92054C2.1955 1.4084 2.68268 1.09028 3.36672 0.825645C3.88243 0.624498 4.65777 0.386973 6.08506 0.322064C7.62861 0.251448 8.09225 0.237183 11.9996 0.237183C15.9085 0.237183 16.3707 0.252875 17.9149 0.322064C19.3422 0.386973 20.1161 0.625925 20.6333 0.825645C21.3166 1.09028 21.8038 1.4084 22.3166 1.92054C22.8295 2.43268 23.1455 2.92057 23.4115 3.6039C23.6127 4.11961 23.8502 4.89495 23.9151 6.32224C23.9857 7.86651 24 8.32872 24 12.2375C24 16.1449 23.9857 16.6086 23.9151 18.1528C23.8502 19.5801 23.6113 20.3555 23.4115 20.8712C23.1455 21.5545 22.8288 22.0417 22.3166 22.5538C21.8045 23.066 21.3166 23.3827 20.6333 23.6487C20.1176 23.8499 19.3422 24.0874 17.9149 24.1523C16.3721 24.2229 15.9085 24.2372 11.9996 24.2372C8.09225 24.2372 7.62862 24.2236 6.08577 24.1523Z" fill="white"/>
<path d="M9.22957 12.1521C9.22957 10.6688 10.4316 9.46611 11.9149 9.46611C13.3981 9.46611 14.6008 10.6688 14.6008 12.1521C14.6008 13.6353 13.3981 14.838 11.9149 14.838C10.4316 14.838 9.22957 13.6353 9.22957 12.1521ZM7.7776 12.1521C7.7776 14.4371 9.62985 16.2893 11.9149 16.2893C14.1999 16.2893 16.0522 14.4371 16.0522 12.1521C16.0522 9.86704 14.1999 8.01478 11.9149 8.01478C9.62985 8.01478 7.77766 9.86691 7.77766 12.1521M15.2491 7.85073C15.2491 8.04196 15.3057 8.22892 15.4119 8.38796C15.5181 8.547 15.669 8.67099 15.8457 8.74424C16.0223 8.81749 16.2167 8.83671 16.4043 8.79948C16.5918 8.76225 16.7641 8.67024 16.8994 8.53507C17.0347 8.39991 17.1268 8.22766 17.1642 8.04013C17.2016 7.85259 17.1825 7.65818 17.1094 7.48148C17.0363 7.30477 16.9125 7.15372 16.7535 7.04742C16.5945 6.94111 16.4076 6.88433 16.2164 6.88426H16.216C15.9597 6.88438 15.7139 6.98623 15.5326 7.16744C15.3513 7.34865 15.2494 7.59441 15.2491 7.85073ZM8.65976 18.7105C7.87422 18.6747 7.44725 18.5439 7.16351 18.4333C6.78733 18.2869 6.51893 18.1125 6.23674 17.8307C5.95454 17.5488 5.77986 17.2807 5.63406 16.9045C5.52345 16.6209 5.3926 16.1938 5.35689 15.4083C5.31783 14.559 5.31003 14.3039 5.31003 12.1522C5.31003 10.0005 5.31847 9.74611 5.35689 8.89611C5.39266 8.11056 5.52448 7.6843 5.63406 7.39985C5.7805 7.02368 5.95493 6.75528 6.23674 6.47308C6.51854 6.19088 6.78669 6.0162 7.16351 5.8704C7.44712 5.75979 7.87422 5.62894 8.65976 5.59323C9.50906 5.55417 9.76418 5.54637 11.9149 5.54637C14.0656 5.54637 14.321 5.55469 15.171 5.59336C15.9565 5.62914 16.3828 5.76095 16.6672 5.87053C17.0434 6.01633 17.3118 6.1914 17.594 6.47321C17.8762 6.75502 18.0502 7.02381 18.1967 7.39998C18.3073 7.6836 18.4381 8.11069 18.4738 8.89624C18.5129 9.74624 18.5207 10.0007 18.5207 12.1523C18.5207 14.304 18.5129 14.5584 18.4738 15.4084C18.4381 16.1939 18.3066 16.6209 18.1967 16.9047C18.0502 17.2808 17.8758 17.5492 17.594 17.8308C17.3122 18.1123 17.0434 18.287 16.6672 18.4335C16.3836 18.5441 15.9565 18.6749 15.171 18.7106C14.3217 18.7497 14.0665 18.7575 11.9149 18.7575C9.76322 18.7575 9.5088 18.7497 8.65976 18.7106M8.59305 4.14364C7.73531 4.1827 7.1492 4.31871 6.63734 4.51788C6.10756 4.72357 5.65848 4.99951 5.21005 5.44724C4.76162 5.89496 4.48639 6.3441 4.2807 6.87452C4.08153 7.3867 3.94552 7.97249 3.90646 8.83023C3.86675 9.68933 3.85767 9.96398 3.85767 12.1521C3.85767 14.3401 3.86675 14.6148 3.90646 15.4739C3.94552 16.3317 4.08153 16.9174 4.2807 17.4296C4.48639 17.9594 4.76169 18.4094 5.21005 18.8569C5.65842 19.3044 6.10692 19.58 6.63734 19.7862C7.15017 19.9854 7.73531 20.1214 8.59305 20.1605C9.45259 20.1995 9.7268 20.2093 11.9149 20.2093C14.103 20.2093 14.3776 20.2002 15.2367 20.1605C16.0945 20.1214 16.6802 19.9854 17.1924 19.7862C17.7222 19.58 18.1713 19.3046 18.6197 18.8569C19.0681 18.4092 19.3428 17.9594 19.5491 17.4296C19.7482 16.9174 19.8849 16.3316 19.9233 15.4739C19.9624 14.6142 19.9714 14.3401 19.9714 12.1521C19.9714 9.96398 19.9624 9.68933 19.9233 8.83023C19.8842 7.97243 19.7482 7.38638 19.5491 6.87452C19.3428 6.34474 19.0674 5.89567 18.6197 5.44724C18.172 4.9988 17.7222 4.72357 17.1931 4.51788C16.6802 4.31871 16.0944 4.18206 15.2374 4.14364C14.3781 4.10439 14.1036 4.09485 11.9158 4.09485C9.72809 4.09485 9.45292 4.10394 8.59337 4.14364" fill="#1E386B"/>
</g>
<defs>
<clipPath id="clip0_10_3071">
<rect y="0.237183" width="24" height="24" rx="12" fill="white"/>
</clipPath>
</defs>
</svg>
