<svg width="24" height="25" viewBox="0 0 24 25" fill="none" xmlns="http://www.w3.org/2000/svg">
<rect y="0.237183" width="24" height="24" rx="12" fill="white"/>
<g clip-path="url(#clip0_10_3075)">
<path d="M5 7.10484C5 6.65438 5.15766 6.28275 5.47297 5.98997C5.78828 5.69717 6.1982 5.55078 6.7027 5.55078C7.1982 5.55078 7.59909 5.69492 7.90541 5.98321C8.22072 6.28051 8.37838 6.66789 8.37838 7.14538C8.37838 7.57781 8.22523 7.93816 7.91892 8.22646C7.60361 8.52375 7.18919 8.6724 6.67568 8.6724H6.66216C6.16666 8.6724 5.76577 8.52375 5.45946 8.22646C5.15315 7.92916 5 7.55528 5 7.10484ZM5.17568 18.9292V9.90213H8.17568V18.9292H5.17568ZM9.83784 18.9292H12.8378V13.8886C12.8378 13.5733 12.8739 13.3301 12.9459 13.1589C13.0721 12.8526 13.2635 12.5936 13.5203 12.3819C13.777 12.1701 14.0991 12.0643 14.4865 12.0643C15.4955 12.0643 16 12.7445 16 14.1048V18.9292H19V13.7535C19 12.4201 18.6847 11.4089 18.0541 10.7197C17.4234 10.0305 16.5901 9.68592 15.5541 9.68592C14.3919 9.68592 13.4865 10.1859 12.8378 11.1859V11.2129H12.8243L12.8378 11.1859V9.90213H9.83784C9.85585 10.1904 9.86486 11.0868 9.86486 12.5913C9.86486 14.0958 9.85585 16.2084 9.83784 18.9292Z" fill="#1E386B"/>
</g>
<defs>
<clipPath id="clip0_10_3075">
<rect x="5" y="5.23718" width="14" height="14" fill="white"/>
</clipPath>
</defs>
</svg>
