<svg width="24" height="25" viewBox="0 0 24 25" fill="none" xmlns="http://www.w3.org/2000/svg">
<rect y="0.237183" width="24" height="24" rx="12" fill="white"/>
<path fill-rule="evenodd" clip-rule="evenodd" d="M5.43202 12.1105C8.93026 10.5864 11.263 9.58161 12.4302 9.09614C15.7627 7.71003 16.4551 7.46925 16.9065 7.4613C17.0058 7.45955 17.2277 7.48415 17.3715 7.60081C17.4929 7.69932 17.5263 7.83239 17.5423 7.92579C17.5583 8.01918 17.5782 8.23194 17.5623 8.39819C17.3818 10.2957 16.6003 14.9004 16.2028 17.0256C16.0346 17.9248 15.7034 18.2263 15.3827 18.2558C14.6859 18.32 14.1567 17.7953 13.4817 17.3529C12.4256 16.6606 11.8289 16.2296 10.8037 15.554C9.61896 14.7733 10.387 14.3441 11.0622 13.6429C11.2389 13.4593 14.3093 10.6666 14.3687 10.4132C14.3762 10.3815 14.3831 10.2634 14.3129 10.2011C14.2427 10.1387 14.1392 10.16 14.0644 10.177C13.9585 10.201 12.2713 11.3162 9.00276 13.5226C8.52385 13.8514 8.09007 14.0116 7.70141 14.0032C7.27295 13.994 6.44876 13.761 5.83606 13.5618C5.08456 13.3175 4.48728 13.1884 4.53929 12.7735C4.56638 12.5574 4.86395 12.3364 5.43202 12.1105Z" fill="#1E386B"/>
</svg>
