<svg width="24" height="25" viewBox="0 0 24 25" fill="none" xmlns="http://www.w3.org/2000/svg">
<rect y="0.237183" width="24" height="24" rx="12" fill="white"/>
<path d="M14.7157 5.23718H12.1085V15.3183C12.1085 16.5195 11.1058 17.5062 9.85787 17.5062C8.60997 17.5062 7.6072 16.5195 7.6072 15.3183C7.6072 14.1386 8.58769 13.1734 9.79103 13.1305V10.5995C7.13924 10.6424 5 12.723 5 15.3183C5 17.9352 7.18381 20.0372 9.88016 20.0372C12.5765 20.0372 14.7603 17.9137 14.7603 15.3183V10.1491C15.7408 10.8354 16.9441 11.243 18.2143 11.2644V8.73342C16.2533 8.66907 14.7157 7.12472 14.7157 5.23718Z" fill="#1E386B"/>
</svg>
