<svg width="24" height="25" viewBox="0 0 24 25" fill="none" xmlns="http://www.w3.org/2000/svg">
<rect y="0.237183" width="24" height="24" rx="12" fill="white"/>
<path d="M9.80396 18.5672C15.126 18.5672 18.036 14.1572 18.036 10.3352C18.036 10.2092 18.036 10.0832 18.03 9.96319C18.594 9.55519 19.086 9.04519 19.476 8.46319C18.96 8.69119 18.402 8.84719 17.814 8.91919C18.414 8.55919 18.87 7.99519 19.086 7.31719C18.528 7.64719 17.91 7.88719 17.25 8.01919C16.722 7.45519 15.972 7.10719 15.138 7.10719C13.542 7.10719 12.246 8.40319 12.246 9.99919C12.246 10.2272 12.27 10.4492 12.324 10.6592C9.91796 10.5392 7.78796 9.38719 6.35996 7.63519C6.11396 8.06119 5.96996 8.55919 5.96996 9.08719C5.96996 10.0892 6.47996 10.9772 7.25996 11.4932C6.78596 11.4812 6.34196 11.3492 5.95196 11.1332C5.95196 11.1452 5.95196 11.1572 5.95196 11.1692C5.95196 12.5732 6.94796 13.7372 8.27396 14.0072C8.03396 14.0732 7.77596 14.1092 7.51196 14.1092C7.32596 14.1092 7.14596 14.0912 6.96596 14.0552C7.33196 15.2072 8.39996 16.0412 9.66596 16.0652C8.67596 16.8392 7.42796 17.3012 6.07196 17.3012C5.83796 17.3012 5.60996 17.2892 5.38196 17.2592C6.64796 18.0872 8.17196 18.5672 9.80396 18.5672Z" fill="#1E386B"/>
</svg>
