<svg width="24" height="25" viewBox="0 0 24 25" fill="none" xmlns="http://www.w3.org/2000/svg">
<rect y="0.237183" width="24" height="24" rx="12" fill="white"/>
<path d="M18.9882 8.80189C18.8235 8.19012 18.3412 7.70777 17.7294 7.54306C16.6118 7.23718 12.1412 7.23718 12.1412 7.23718C12.1412 7.23718 7.67059 7.23718 6.55294 7.5313C5.95294 7.69601 5.45882 8.19012 5.29412 8.80189C5 9.91954 5 12.2372 5 12.2372C5 12.2372 5 14.5666 5.29412 15.6725C5.45882 16.2842 5.94118 16.7666 6.55294 16.9313C7.68235 17.2372 12.1412 17.2372 12.1412 17.2372C12.1412 17.2372 16.6118 17.2372 17.7294 16.9431C18.3412 16.7784 18.8235 16.296 18.9882 15.6842C19.2824 14.5666 19.2824 12.2489 19.2824 12.2489C19.2824 12.2489 19.2941 9.91954 18.9882 8.80189Z" fill="#1E386B"/>
<path d="M10.7175 14.3783L14.4352 12.2372L10.7175 10.096V14.3783Z" fill="white"/>
</svg>
