<svg width="29" height="29" viewBox="0 0 29 29" fill="none" xmlns="http://www.w3.org/2000/svg">
<path d="M13.3024 0H9.95476C7.22381 0 4.66905 1.5 2.81905 4.32353C0.969048 6.97059 0 10.5882 0 14.3824C0 18.3529 1.05714 21.9706 2.99524 24.7059C4.84524 27.3529 7.3119 28.7647 9.86667 28.7647H13.2143C15.681 28.5882 17.9714 27.0882 19.6452 24.4412C21.4952 21.7059 22.4643 18.1765 22.4643 14.3824C22.4643 10.7647 21.4952 7.14706 19.7333 4.5C18.1476 1.85294 15.769 0.352941 13.3024 0Z" fill="#875F27"/>
<path d="M19.1188 14.4574C19.1188 10.6633 18.0616 7.48685 16.4759 4.92802C15.3307 3.25155 14.0093 1.92802 12.4235 1.31037V0.604492H9.69259C4.58306 0.604492 0.354492 6.78096 0.354492 14.3692C0.354492 18.3398 1.49973 21.8692 3.26164 24.428C4.93544 26.7221 7.22592 28.2221 9.69259 28.2221H12.4235V27.6045C16.3878 25.7515 19.1188 20.6339 19.1188 14.4574Z" fill="#F8B828"/>
<path d="M12.5985 28.3192H9.69133C7.22466 28.3192 4.93418 26.9075 3.17228 24.3486C1.32228 21.7016 0.265137 18.1722 0.265137 14.2898C0.265137 6.61334 4.5818 0.348633 9.77942 0.348633H12.6866V0.96628C14.1842 1.7604 15.5937 2.90746 16.6509 4.58393C18.3247 7.23099 19.2937 10.5839 19.2937 14.2016C19.2937 20.2898 16.6509 25.5839 12.7747 27.4369L12.5985 28.3192ZM9.77942 0.701574C4.75799 0.701574 0.617518 6.78981 0.617518 14.378C0.617518 18.1722 1.67466 21.7016 3.43657 24.2604C5.11037 26.731 7.40085 28.0545 9.77942 28.0545H12.4223V27.4369H12.5104C14.3604 26.5545 15.9461 24.878 17.1794 22.5839C18.4128 20.2898 19.0294 17.2898 19.0294 14.378C19.0294 10.8486 18.0604 7.49569 16.4747 4.93687C15.2413 3.2604 13.8318 2.0251 12.4223 1.40746H12.3342V0.701574H9.77942Z" fill="#B28445"/>
<path d="M19.3817 4.85283C17.7079 2.20577 15.3293 0.529297 12.6864 0.529297C7.48883 0.617532 3.26025 6.794 3.26025 14.294C3.26025 18.2646 4.40549 21.794 6.1674 24.3528C7.84121 26.6469 10.1317 28.1469 12.5983 28.1469C17.7079 28.1469 21.9364 21.9705 21.9364 14.3822C21.8484 10.7646 20.9674 7.41165 19.3817 4.85283ZM13.1269 24.794C12.9507 24.794 12.8626 24.794 12.6864 24.794C10.8364 24.794 9.16263 23.6469 7.84121 21.9705C6.51978 20.2058 5.63883 17.6469 5.63883 14.8234C5.63883 14.6469 5.63883 14.5587 5.63883 14.3822C5.63883 8.73518 8.81025 3.97047 12.5983 3.97047C12.7745 3.97047 12.8626 3.97047 13.0388 3.97047C16.6507 4.32341 19.5579 8.82341 19.5579 14.3822C19.5579 14.5587 19.5579 14.6469 19.5579 14.8234C19.4698 20.2058 16.6507 24.4411 13.1269 24.794Z" fill="#F6E245"/>
<path d="M12.5971 28.3212C10.1304 28.3212 7.83995 26.9094 6.07804 24.3506C4.22804 21.7035 3.1709 18.1741 3.1709 14.2918C3.1709 6.61529 7.39947 0.350586 12.5971 0.350586C15.2399 0.350586 17.6185 1.85059 19.3804 4.67412C21.0542 7.32117 22.0233 10.6741 22.0233 14.2918C21.9352 22.0565 17.7066 28.3212 12.5971 28.3212ZM12.5971 0.703527C7.57566 0.703527 3.43518 6.79176 3.43518 14.38C3.43518 18.1741 4.49233 21.7035 6.25423 24.2624C7.92804 26.7329 10.2185 28.0565 12.5971 28.0565C17.6185 28.0565 21.759 21.9682 21.759 14.38C21.759 10.8506 20.7899 7.49765 19.2042 4.93882C17.4423 2.20353 15.1519 0.703527 12.5971 0.703527ZM12.5971 24.9682C10.7471 24.9682 8.98518 23.9094 7.66376 22.0565C6.25423 20.2035 5.46137 17.5565 5.46137 14.8212C5.46137 14.6447 5.46137 14.5565 5.46137 14.38C5.46137 8.55647 8.6328 3.79176 12.6852 3.79176C12.8614 3.79176 12.9495 3.79176 13.1257 3.79176C16.9138 4.1447 19.8209 8.73294 19.8209 14.38C19.8209 14.5565 19.8209 14.6447 19.8209 14.8212C19.6447 20.2035 16.8257 24.6153 13.1257 24.88C12.8614 24.9682 12.7733 24.9682 12.5971 24.9682ZM12.5971 4.1447C8.80899 4.1447 5.72566 8.73294 5.72566 14.4682C5.72566 14.6447 5.72566 14.7329 5.72566 14.9094C5.81376 17.6447 6.60661 20.2035 7.92804 21.88C9.24947 23.6447 10.9233 24.7035 12.5971 24.7035C12.7733 24.7035 12.8614 24.7035 13.0376 24.7035C16.5614 24.3506 19.2923 20.1153 19.4685 14.9094C19.4685 14.7329 19.4685 14.6447 19.4685 14.4682C19.4685 9.08588 16.6495 4.58588 13.0376 4.1447C12.8614 4.1447 12.5971 4.1447 12.5971 4.1447Z" fill="#B28445"/>
<path d="M13.1293 4.08203C12.9531 4.08203 12.865 4.08203 12.6888 4.08203C12.6007 4.08203 12.4245 4.08203 12.3364 4.08203H12.4245C16.0364 4.43497 18.9436 8.93497 18.9436 14.4938C18.9436 14.6703 18.9436 14.7585 18.9436 14.935C18.7674 20.3173 15.9483 24.5526 12.4245 24.8173H12.3364C12.4245 24.8173 12.6007 24.8173 12.6888 24.8173C12.865 24.8173 12.9531 24.8173 13.1293 24.8173C16.6531 24.4644 19.5602 20.1409 19.6483 14.935C19.6483 14.7585 19.6483 14.6703 19.6483 14.4938C19.6483 8.93497 16.7412 4.43497 13.1293 4.08203Z" fill="#F8B218"/>
<path d="M12.6014 24.9916C12.5133 24.9916 12.3371 24.9916 12.249 24.9916V24.7269H12.3371C15.8609 24.3739 18.5919 20.1386 18.7681 14.9327C18.7681 14.7563 18.7681 14.668 18.7681 14.4916C18.7681 9.1092 15.949 4.6092 12.3371 4.16803H12.249V3.90332C12.5133 3.90332 12.7776 3.90332 13.2181 3.90332C17.0062 4.25626 19.9133 8.8445 19.9133 14.4916C19.9133 14.668 19.9133 14.7563 19.9133 14.9327C19.7371 20.3151 16.9181 24.7269 13.2181 24.9916C12.8657 24.9916 12.7776 24.9916 12.6014 24.9916ZM14.0109 4.43273C16.9181 5.8445 18.9443 9.81509 18.9443 14.4916C18.9443 14.668 18.9443 14.7563 18.9443 14.9327C18.8562 19.4327 16.7419 23.1386 14.0109 24.5504C17.0062 23.5798 19.3847 19.6974 19.3847 14.9327C19.3847 14.7563 19.3847 14.668 19.3847 14.4916C19.4728 9.63861 17.1824 5.40332 14.0109 4.43273Z" fill="#B28445"/>
<path d="M16.5617 0H13.214C10.4831 0 7.92832 1.5 6.07832 4.32353C4.22832 6.97059 3.25928 10.5882 3.25928 14.3824C3.25928 18.3529 4.31642 21.9706 6.25452 24.7059C8.10451 27.3529 10.5712 28.7647 13.1259 28.7647H16.4736C18.9402 28.5882 21.2307 27.0882 22.9045 24.4412C24.7545 21.7059 25.7236 18.1765 25.7236 14.3824C25.7236 10.7647 24.7545 7.14706 22.9926 4.5C21.4069 1.85294 19.1164 0.352941 16.5617 0Z" fill="#875F27"/>
<path d="M22.3732 14.4574C22.3732 10.6633 21.316 7.48685 19.7303 4.92802C18.5851 3.25155 17.2636 1.92802 15.6779 1.31037V0.604492H12.947C7.83746 0.604492 3.60889 6.78096 3.60889 14.3692C3.60889 18.3398 4.75412 21.8692 6.51603 24.428C8.18984 26.7221 10.4803 28.2221 12.947 28.2221H15.6779V27.6045C19.6422 25.7515 22.3732 20.6339 22.3732 14.4574Z" fill="#F8B828"/>
<path d="M16.0316 28.3192H13.1244C10.6578 28.3192 8.36729 26.9075 6.60539 24.3486C4.75539 21.7016 3.69824 18.0839 3.69824 14.2898C3.69824 6.61334 7.92681 0.348633 13.1244 0.348633H16.0316V0.96628C17.5292 1.7604 18.9387 2.90746 19.9959 4.58393C21.6697 7.23099 22.6387 10.5839 22.6387 14.2016C22.6387 17.2016 22.0221 20.1133 20.7887 22.4957C19.5554 24.7898 17.9697 26.5545 16.1197 27.4369L16.0316 28.3192ZM13.1244 0.701574C8.103 0.701574 3.96253 6.78981 3.96253 14.378C3.96253 18.1722 5.01967 21.7016 6.78158 24.2604C8.45538 26.731 10.7459 28.0545 13.1244 28.0545H15.7673V27.4369H15.8554C17.7054 26.5545 19.2911 24.878 20.5244 22.5839C21.7578 20.2898 22.3744 17.2898 22.3744 14.378C22.3744 10.8486 21.4054 7.49569 19.8197 4.93687C18.5863 3.2604 17.1768 2.0251 15.7673 1.40746H15.6792V0.701574H13.1244Z" fill="#B28445"/>
<path d="M22.5499 4.85283C20.8761 2.20577 18.4976 0.529297 15.8547 0.529297C10.7452 0.529297 6.5166 6.70577 6.5166 14.294C6.5166 18.2646 7.66184 21.794 9.42374 24.3528C11.0976 26.6469 13.388 28.1469 15.8547 28.1469C20.9642 28.1469 25.1928 21.9705 25.1928 14.3822C25.2809 10.7646 24.1356 7.41165 22.5499 4.85283ZM16.3833 24.794C16.2071 24.794 16.119 24.794 15.9428 24.794C14.0928 24.794 12.419 23.6469 11.0976 21.9705C9.77613 20.2058 8.89517 17.6469 8.89517 14.8234C8.89517 14.6469 8.89517 14.5587 8.89517 14.3822C8.89517 8.73518 12.0666 3.97047 15.8547 3.97047C16.0309 3.97047 16.119 3.97047 16.2952 3.97047C19.9071 4.32341 22.8142 8.82341 22.8142 14.3822C22.8142 14.5587 22.8142 14.6469 22.8142 14.8234C22.8142 20.2058 19.9071 24.4411 16.3833 24.794Z" fill="#F6E245"/>
<path d="M15.8554 28.3212C13.3887 28.3212 11.0982 26.9094 9.33634 24.3506C7.48634 21.7035 6.4292 18.0859 6.4292 14.2918C6.4292 6.61529 10.6578 0.350586 15.8554 0.350586C18.4982 0.350586 20.8768 1.85059 22.6387 4.67412C24.3125 7.32117 25.2816 10.6741 25.2816 14.2918C25.2816 22.0565 21.053 28.3212 15.8554 28.3212ZM15.8554 0.703527C10.834 0.703527 6.69348 6.79176 6.69348 14.38C6.69348 18.1741 7.75063 21.7035 9.51253 24.2624C11.1863 26.7329 13.4768 28.0565 15.8554 28.0565C20.8768 28.0565 25.0173 21.9682 25.0173 14.38C25.0173 10.8506 24.0482 7.49765 22.4625 4.93882C20.7006 2.20353 18.4101 0.703527 15.8554 0.703527ZM15.8554 24.9682C14.0054 24.9682 12.2435 23.9094 10.9221 22.0565C9.51253 20.2035 8.71967 17.5565 8.71967 14.8212C8.71967 14.6447 8.71967 14.5565 8.71967 14.38C8.71967 8.55647 11.8911 3.79176 15.9435 3.79176C16.1197 3.79176 16.2078 3.79176 16.384 3.79176C20.1721 4.1447 23.0792 8.73294 23.0792 14.38C23.0792 14.5565 23.0792 14.6447 23.0792 14.8212C22.903 20.2035 20.084 24.6153 16.384 24.88C16.2959 24.9682 16.0316 24.9682 15.8554 24.9682ZM15.8554 4.1447C12.0673 4.1447 8.98396 8.73294 8.98396 14.4682C8.98396 14.6447 8.98396 14.7329 8.98396 14.9094C9.07206 17.6447 9.86491 20.2035 11.1863 21.88C12.5078 23.6447 14.1816 24.7035 15.8554 24.7035C16.0316 24.7035 16.1197 24.7035 16.2959 24.7035C19.8197 24.3506 22.5506 20.1153 22.7268 14.9094C22.7268 14.7329 22.7268 14.6447 22.7268 14.4682C22.7268 9.08588 19.9078 4.58588 16.2959 4.1447C16.2078 4.1447 16.0316 4.1447 15.8554 4.1447Z" fill="#B28445"/>
<path d="M16.3812 4.08203C16.205 4.08203 16.1169 4.08203 15.9408 4.08203C15.8527 4.08203 15.6765 4.08203 15.5884 4.08203H15.6765C19.2884 4.43497 22.1955 8.93497 22.1955 14.4938C22.1955 14.6703 22.1955 14.7585 22.1955 14.935C22.0193 20.3173 19.2003 24.5526 15.6765 24.8173H15.5884C15.6765 24.8173 15.8527 24.8173 15.9408 24.8173C16.1169 24.8173 16.205 24.8173 16.3812 24.8173C19.905 24.4644 22.8122 20.1409 22.9003 14.935C22.9003 14.7585 22.9003 14.6703 22.9003 14.4938C22.9003 8.93497 19.9931 4.43497 16.3812 4.08203Z" fill="#F8B218"/>
<path d="M15.8545 24.9916C15.7664 24.9916 15.5903 24.9916 15.5022 24.9916V24.7269H15.5903C19.026 24.3739 21.845 20.1386 21.9331 14.9327C21.9331 14.7563 21.9331 14.668 21.9331 14.4916C21.9331 9.1092 19.1141 4.6092 15.5022 4.16803H15.4141V3.90332C15.6783 3.90332 15.9426 3.90332 16.3831 3.90332C20.1712 4.25626 23.0783 8.8445 23.0783 14.4916C23.0783 14.668 23.0783 14.7563 23.0783 14.9327C22.9022 20.3151 20.0831 24.7269 16.3831 24.9916C16.295 24.9916 16.0307 24.9916 15.8545 24.9916ZM17.2641 4.43273C20.1712 5.8445 22.1974 9.81509 22.1974 14.4916C22.1974 14.668 22.1974 14.7563 22.1974 14.9327C22.1093 19.4327 19.995 23.1386 17.2641 24.5504C20.2593 23.5798 22.6379 19.6974 22.6379 14.9327C22.6379 14.7563 22.6379 14.668 22.6379 14.4916C22.8141 9.63861 20.4355 5.40332 17.2641 4.43273Z" fill="#B28445"/>
<path d="M19.6427 0H16.2951C13.5641 0 11.0094 1.5 9.15938 4.32353C7.30938 7.05882 6.34033 10.5882 6.34033 14.3824C6.34033 18.3529 7.39747 21.9706 9.33557 24.7059C11.1856 27.3529 13.6522 28.7647 16.207 28.7647H19.5546C22.0213 28.5882 24.3118 27.0882 25.9856 24.4412C27.8356 21.7059 28.8046 18.1765 28.8046 14.3824C28.8046 10.7647 27.8356 7.14706 26.0737 4.5C24.576 1.85294 22.1975 0.352941 19.6427 0Z" fill="#875F27"/>
<path d="M25.5416 14.4633C25.5416 10.6692 24.4845 7.4927 22.8988 4.93388C21.7535 3.25741 20.4321 1.93388 18.8464 1.31623V0.610352H16.1154C11.0059 0.610352 6.77734 6.78682 6.77734 14.3751C6.77734 18.3456 7.92258 21.8751 9.68449 24.4339C11.3583 26.728 13.6488 28.228 16.1154 28.228H18.9345V27.6103C22.8107 25.7574 25.5416 20.6398 25.5416 14.4633Z" fill="#F8B828"/>
<path d="M19.1107 28.3251H16.2035C13.7369 28.3251 11.4464 26.9133 9.68449 24.3545C7.83449 21.7074 6.77734 18.0898 6.77734 14.2957C6.77734 6.6192 11.094 0.354492 16.2035 0.354492H19.1107V0.972139C20.6083 1.76626 22.0178 2.91332 23.075 4.58979C24.7488 7.23685 25.7178 10.5898 25.7178 14.2074C25.7178 20.2957 23.075 25.5898 19.1988 27.4427L19.1107 28.3251ZM16.2916 0.707433C11.2702 0.707433 7.12972 6.79567 7.12972 14.3839C7.12972 18.178 8.18687 21.7074 9.94877 24.2663C11.6226 26.7368 13.9131 28.0604 16.2916 28.0604H18.9345V27.4427H19.0226C20.8726 26.5604 22.4583 24.8839 23.6916 22.5898C24.925 20.2957 25.5416 17.2957 25.5416 14.3839C25.5416 10.8545 24.5726 7.50155 22.9869 4.94273C21.8416 3.26626 20.4321 2.03096 18.9345 1.41332H18.8464V0.707433H16.2916Z" fill="#B28445"/>
<path d="M25.7194 4.83622C24.0456 2.18917 21.667 0.512695 19.0241 0.512695C13.9146 0.512695 9.68604 6.68917 9.68604 14.2774C9.68604 18.248 10.8313 21.7774 12.5932 24.3362C14.267 26.6303 16.5575 28.1303 19.0241 28.1303C24.1337 28.1303 28.3622 21.9539 28.3622 14.3656C28.3622 10.748 27.3932 7.39505 25.7194 4.83622ZM19.4646 24.7774C19.2884 24.7774 19.2003 24.7774 19.0241 24.7774C17.1741 24.7774 15.5003 23.6303 14.1789 21.9539C12.8575 20.1892 11.9765 17.6303 11.9765 14.8068C11.9765 14.6303 11.9765 14.5421 11.9765 14.3656C11.9765 8.71858 15.1479 3.95387 18.936 3.95387C19.1122 3.95387 19.2003 3.95387 19.3765 3.95387C22.9884 4.30681 25.8956 8.80681 25.8956 14.3656C25.8956 14.5421 25.8956 14.6303 25.8956 14.8068C25.8956 20.1892 23.0765 24.4245 19.4646 24.7774Z" fill="#F6E245"/>
<path d="M19.1122 28.3101C16.6456 28.3101 14.3551 26.8983 12.5932 24.3395C10.7432 21.6924 9.68604 18.0748 9.68604 14.2807C9.68604 6.69244 13.8265 0.427734 19.1122 0.427734C21.7551 0.427734 24.1337 1.92773 25.8956 4.75126C27.5694 7.39832 28.5384 10.7513 28.5384 14.3689C28.4503 22.0454 24.3098 28.3101 19.1122 28.3101ZM19.1122 0.69244C14.0908 0.69244 9.95032 6.78067 9.95032 14.3689C9.95032 18.163 11.0075 21.6924 12.7694 24.2513C14.4432 26.7219 16.7337 28.0454 19.1122 28.0454C24.1337 28.0454 28.2741 21.9571 28.2741 14.3689C28.2741 10.8395 27.3051 7.48656 25.7194 4.92773C23.8694 2.19244 21.4908 0.69244 19.1122 0.69244ZM19.1122 24.9571C17.2622 24.9571 15.5003 23.8983 14.1789 22.0454C12.7694 20.1924 11.9765 17.5454 11.9765 14.8101C11.9765 14.6336 11.9765 14.5454 11.9765 14.3689C11.9765 8.54538 15.1479 3.78068 19.2003 3.78068C19.3765 3.78068 19.4646 3.78068 19.6408 3.78068C23.4289 4.13362 26.336 8.72185 26.336 14.3689C26.336 14.5454 26.336 14.6336 26.336 14.8101C26.1598 20.1924 23.3408 24.6042 19.6408 24.8689C19.3765 24.9571 19.1122 24.9571 19.1122 24.9571ZM19.1122 4.13362C15.3241 4.13362 12.2408 8.72185 12.2408 14.4571C12.2408 14.6336 12.2408 14.7219 12.2408 14.8983C12.3289 17.6336 13.1218 20.1924 14.4432 21.8689C15.7646 23.6336 17.4384 24.6924 19.1122 24.6924C19.2884 24.6924 19.3765 24.6924 19.5527 24.6924C23.0765 24.3395 25.8075 20.1042 25.9837 14.8983C25.9837 14.7219 25.9837 14.6336 25.9837 14.4571C25.9837 9.07479 23.1646 4.57479 19.5527 4.13362C19.3765 4.13362 19.1122 4.13362 19.1122 4.13362Z" fill="#B28445"/>
<path d="M19.4657 4.07812C19.2895 4.07812 19.2014 4.07812 19.0252 4.07812C18.9371 4.07812 18.7609 4.07812 18.6729 4.07812H18.7609C22.3729 4.43107 25.28 8.93107 25.28 14.4899C25.28 14.6664 25.28 14.7546 25.28 14.9311C25.1038 20.3134 22.2848 24.5487 18.7609 24.8134H18.6729C18.7609 24.8134 18.9371 24.8134 19.0252 24.8134C19.2014 24.8134 19.2895 24.8134 19.4657 24.8134C22.9895 24.4605 25.8967 20.1369 25.9848 14.9311C25.9848 14.7546 25.9848 14.6664 25.9848 14.4899C26.0729 8.93107 23.1657 4.43107 19.4657 4.07812Z" fill="#F8B218"/>
<path d="M19.1126 24.9877C19.0245 24.9877 18.8483 24.9877 18.7603 24.9877V24.7229H18.8483C22.3722 24.37 25.1031 20.1347 25.2793 14.9288C25.2793 14.7524 25.2793 14.6641 25.2793 14.4877C25.2793 9.1053 22.4603 4.6053 18.8483 4.16412H18.7603V3.89941C19.0245 3.89941 19.2888 3.89941 19.7293 3.89941C23.5174 4.25236 26.4245 8.84059 26.4245 14.4877C26.4245 14.6641 26.4245 14.7524 26.4245 14.9288C26.1603 20.3112 23.3412 24.6347 19.6412 24.9877C19.3769 24.9877 19.1126 24.9877 19.1126 24.9877ZM20.4341 4.42883C23.3412 5.84059 25.3674 9.81118 25.3674 14.4877C25.3674 14.6641 25.3674 14.7524 25.3674 14.9288C25.2793 19.4288 23.165 23.1347 20.4341 24.5465C23.4293 23.5759 25.8079 19.6935 25.8079 14.9288C25.8079 14.7524 25.8079 14.6641 25.8079 14.4877C25.896 9.63471 23.6055 5.39941 20.4341 4.42883Z" fill="#B28445"/>
<path d="M16.9974 17.377V20.7299H16.0283V19.3181L16.9974 17.377Z" fill="#F6E245"/>
<path d="M18.1467 15.1816L18.5872 15.9758V16.064V20.7405H17.6182V16.1522L18.1467 15.1816Z" fill="#F6E245"/>
<path d="M20.0833 15.5332V20.7391H19.1143V17.5626L19.3785 17.3861L19.9952 15.9744L20.0833 15.5332Z" fill="#F6E245"/>
<path d="M21.7557 12.3516V20.7339H20.7866V14.2927L21.7557 12.3516Z" fill="#F6E245"/>
<path d="M19.1126 15.859H18.8483L18.1436 14.4473H18.584L19.1126 15.859Z" fill="#875F27"/>
<path d="M16.0269 19.3057H15.5864V20.8057H16.0269V19.3057Z" fill="#875F27"/>
<path d="M16.0269 19.3172H15.5864L16.5555 17.376H16.9959L16.0269 19.3172Z" fill="#875F27"/>
<path d="M17.7027 16.1299H17.2622V20.7181H17.7027V16.1299Z" fill="#875F27"/>
<path d="M17.6146 16.1454H17.2622L17.7027 15.1748H18.1432L17.6146 16.1454Z" fill="#875F27"/>
<path d="M19.9905 15.9675H19.4619L19.7262 15.5264H20.0786L19.9905 15.9675Z" fill="#875F27"/>
<path d="M19.3748 17.3795H18.8462L19.4629 15.9678H19.9914L19.3748 17.3795Z" fill="#875F27"/>
<path d="M19.1105 17.5524H18.8462V17.376H19.3748L19.1105 17.5524Z" fill="#875F27"/>
<path d="M19.2867 17.5459H18.8462V20.8988H19.2867V17.5459Z" fill="#875F27"/>
<path d="M20.876 14.2861H20.4355V20.7273H20.876V14.2861Z" fill="#875F27"/>
<path d="M20.7879 14.2918H20.4355L21.4046 12.3506H21.757L20.7879 14.2918Z" fill="#875F27"/>
<path d="M22.3686 10.4002H21.9281L21.752 9.69434H22.1924L22.3686 10.4002Z" fill="#875F27"/>
<path d="M21.4889 8.27062H21.0485L20.7842 7.74121H21.2247L21.4889 8.27062Z" fill="#875F27"/>
<path d="M19.1105 12.9743H18.8462L21.0486 8.29785H21.489L19.1105 12.9743Z" fill="#875F27"/>
<path d="M18.5855 14.479H18.1451L17.7046 13.5967H18.2332L18.5855 14.479Z" fill="#875F27"/>
<path d="M17.523 12.1683H17.0825L17.6992 10.8447H18.2278L17.523 12.1683Z" fill="#875F27"/>
<path d="M15.2317 17.1218H14.7031L17.0817 12.1807H17.5222L15.2317 17.1218Z" fill="#875F27"/>
<path d="M15.8484 18.3398H15.4079L14.7031 17.1045H15.2317L15.8484 18.3398Z" fill="#875F27"/>
<path d="M21.2307 7.74219H22.3759V10.3892L22.1998 9.68336L19.9093 14.4481L19.1164 15.8598L18.5879 14.4481L18.2355 13.5657L15.8569 18.3304L15.2402 17.0951L17.5307 12.154L18.2355 10.8304L18.8521 12.154L19.1164 12.9481L21.495 8.2716L21.2307 7.74219Z" fill="#F6E245"/>
</svg>
