<svg width="147" height="24" viewBox="0 0 147 24" fill="none" xmlns="http://www.w3.org/2000/svg">
<g clip-path="url(#clip0_6103_76804)">
<path d="M26.543 12.6239C26.543 10.2489 27.3113 8.29305 28.7084 6.75629C30.1753 5.21953 31.9915 4.521 34.2966 4.521C36.2525 4.521 37.929 5.07982 39.2562 6.19747C40.5834 7.31511 41.4216 8.78203 41.7011 10.5982H38.2783C37.8591 8.64232 36.2525 7.59453 34.1569 7.59453C31.3628 7.59453 29.7562 9.55041 29.7562 12.5541C29.7562 15.5578 31.4327 17.5136 34.1569 17.5136C36.2525 17.5136 37.7893 16.4658 38.2783 14.51H41.8408C41.5614 16.396 40.793 17.7931 39.3959 18.9107C37.9989 19.9585 36.3922 20.5872 34.4363 20.5872C32.2011 20.5872 30.315 19.8188 28.8481 18.3519C27.3114 16.9548 26.543 14.9989 26.543 12.6239Z" fill="#1E396B"/>
<path d="M49.2447 20.6514C47.4285 20.6514 46.0314 20.0926 44.9138 18.9051C43.7961 17.7176 43.2373 16.3904 43.2373 14.6441C43.2373 12.8977 43.7961 11.5705 44.9138 10.383C45.9616 9.19554 47.4285 8.63672 49.2447 8.63672C51.0608 8.63672 52.4579 9.19554 53.5755 10.383C54.6233 11.5705 55.252 12.9676 55.252 14.6441C55.252 16.3205 54.6932 17.7176 53.5755 18.9051C52.4579 20.0227 50.991 20.6514 49.2447 20.6514ZM46.3807 14.7838C46.3807 15.7617 46.6601 16.6 47.1491 17.1588C47.7079 17.7176 48.4064 17.997 49.2447 17.997C50.0829 17.997 50.7814 17.7176 51.3402 17.1588C51.8991 16.6 52.1086 15.7617 52.1086 14.7838C52.1086 13.8058 51.8292 12.9676 51.3402 12.4088C50.8513 11.85 50.0829 11.5705 49.2447 11.5705C48.4064 11.5705 47.7079 11.85 47.1491 12.4088C46.5902 12.8977 46.3807 13.736 46.3807 14.7838Z" fill="#1E396B"/>
<path d="M57.3473 20.4468V9.06078H60.4208V20.4468H57.3473ZM58.8841 7.52401C58.3253 7.52401 57.9061 7.38431 57.487 7.03504C57.2076 6.68578 56.998 6.26666 56.998 5.63798C56.998 5.07916 57.1378 4.66004 57.487 4.24092C57.8363 3.89166 58.2554 3.75195 58.8841 3.75195C59.5128 3.75195 59.862 3.89166 60.2811 4.24092C60.6304 4.66004 60.7701 5.07916 60.7701 5.63798C60.7701 6.19681 60.6304 6.61592 60.2811 6.89534C59.862 7.38431 59.4429 7.52401 58.8841 7.52401Z" fill="#1E396B"/>
<path d="M66.1496 8.99035V10.3874C66.7084 9.33961 67.8959 8.71094 69.5724 8.71094C72.2268 8.71094 73.7636 10.4573 73.7636 13.2514V20.3764H70.69V13.6006C70.69 12.0639 70.0614 11.3653 68.7341 11.3653C67.1974 11.3653 66.429 12.3433 66.429 13.8102V20.3764H63.3555V8.99035H66.1496Z" fill="#1E396B"/>
<path d="M80.6099 16.6741L83.404 8.92041H86.6172L82.0069 20.3064H79.143L74.6025 8.92041H77.8856L80.6099 16.6741Z" fill="#1E396B"/>
<path d="M98.1419 15.5546H89.8295C90.039 17.1612 91.0868 17.9995 92.5537 17.9995C93.5317 17.9995 94.4397 17.5804 94.7192 16.7421H97.7927C97.4434 17.9296 96.8147 18.8377 95.8368 19.5362C94.8589 20.3046 93.6714 20.584 92.3441 20.584C90.6677 20.584 89.2706 20.0252 88.2228 18.9076C87.175 17.8598 86.6162 16.3929 86.6162 14.5767C86.6162 12.8304 87.175 11.5032 88.2228 10.3157C89.2008 9.12816 90.6677 8.56934 92.3441 8.56934C94.0206 8.56934 95.3478 9.12816 96.4655 10.2458C97.4434 11.4333 98.0721 12.7605 98.0721 14.5068V15.5546H98.1419ZM89.8295 13.3193H95.0684C94.8589 12.062 93.8809 11.1539 92.4839 11.1539C91.0868 11.1539 90.1787 12.062 89.8295 13.3193Z" fill="#1E396B"/>
<path d="M99.4004 16.6741H102.474C102.544 17.5123 103.103 18.2108 104.36 18.2108C105.547 18.2108 106.176 17.7917 106.176 17.2329C106.176 16.4645 105.198 16.255 103.941 16.0454C103.312 15.9057 102.683 15.8359 102.055 15.6263C100.797 15.277 99.8195 14.2292 99.8195 12.6226C99.8195 11.5748 100.239 10.6667 101.077 9.9682C101.915 9.26967 103.033 8.92041 104.36 8.92041C105.897 8.92041 107.014 9.26967 107.853 10.1079C108.621 10.8763 109.04 11.7844 109.11 12.7623H106.106C106.036 11.9939 105.478 11.3653 104.36 11.3653C103.382 11.3653 102.753 11.8542 102.753 12.4131C102.753 13.1814 103.731 13.391 104.989 13.6006C105.547 13.7403 106.246 13.8101 106.875 14.0197C108.132 14.3689 109.11 15.4167 109.11 17.0932C109.11 18.141 108.691 19.0491 107.853 19.6778C107.014 20.4461 105.827 20.6557 104.29 20.6557C101.217 20.6557 99.5401 19.3285 99.4004 16.6741Z" fill="#1E396B"/>
<path d="M116.514 17.6483V20.3027C116.165 20.3726 115.746 20.4424 115.048 20.4424C112.742 20.4424 111.485 19.2549 111.485 16.9498V11.2917H109.948V8.84685H111.485V6.05273H114.559V8.84685H116.445V11.2917H114.698V16.5307C114.698 17.2991 115.048 17.5785 115.886 17.5785H116.514V17.6483Z" fill="#1E396B"/>
<path d="M117.909 17.233C117.909 15.2073 119.306 14.0198 122.31 13.6006L125.314 13.1815V12.972C125.314 11.9242 124.685 11.2955 123.288 11.2955C122.031 11.2955 121.332 11.7146 121.192 12.6926H118.189C118.328 11.6448 118.747 10.6668 119.586 9.89844C120.354 9.13006 121.681 8.71094 123.358 8.71094C126.641 8.71094 128.317 10.2477 128.317 12.972V18.3506C128.317 19.1889 128.457 19.8874 128.667 20.3764H125.733C125.733 20.3764 125.593 19.8176 125.593 19.119C124.825 20.097 123.637 20.6558 121.961 20.6558C119.306 20.6558 117.909 19.2587 117.909 17.233ZM125.314 15.2073L122.589 15.6264C121.402 15.8359 120.843 16.2551 120.843 17.0234C120.843 17.7918 121.402 18.2808 122.589 18.2808C124.336 18.2808 125.314 17.3028 125.314 15.7661V15.2073Z" fill="#1E396B"/>
<path d="M130.136 16.6741H133.209C133.279 17.5123 133.838 18.2108 135.095 18.2108C136.283 18.2108 136.911 17.7917 136.911 17.2329C136.911 16.4645 135.934 16.255 134.676 16.0454C134.048 15.9057 133.419 15.8359 132.79 15.6263C131.533 15.277 130.555 14.2292 130.555 12.6226C130.555 11.5748 130.974 10.6667 131.812 9.9682C132.65 9.19982 133.768 8.92041 135.095 8.92041C136.632 8.92041 137.75 9.26967 138.588 10.1079C139.356 10.8763 139.775 11.7844 139.845 12.7623H136.911C136.842 11.9939 136.283 11.3653 135.165 11.3653C134.187 11.3653 133.559 11.8542 133.559 12.4131C133.559 13.1814 134.536 13.391 135.794 13.6006C136.353 13.7403 137.051 13.8101 137.68 14.0197C138.937 14.3689 139.915 15.4167 139.915 17.0932C139.915 18.141 139.496 19.0491 138.658 19.6778C137.82 20.4461 136.632 20.6557 135.095 20.6557C131.952 20.6557 130.345 19.3285 130.136 16.6741Z" fill="#1E396B"/>
<path d="M141.94 20.4487V9.06267H145.014V20.4487H141.94ZM143.477 7.52591C142.918 7.52591 142.499 7.3862 142.08 7.03694C141.661 6.68767 141.591 6.26856 141.591 5.77958C141.591 5.22076 141.731 4.80164 142.08 4.38253C142.429 4.03326 142.848 3.89355 143.477 3.89355C144.036 3.89355 144.455 4.03326 144.874 4.38253C145.223 4.73179 145.363 5.15091 145.363 5.77958C145.363 6.33841 145.223 6.75753 144.874 7.03694C144.525 7.3862 144.036 7.52591 143.477 7.52591Z" fill="#1E396B"/>
<path d="M10.7617 0.826172H8.10725C5.94181 0.826172 3.91607 2.01367 2.44916 4.24897C0.98225 6.34455 0.213867 9.20852 0.213867 12.2122C0.213867 15.3556 1.0521 18.2196 2.58887 20.385C4.05578 22.4806 6.01166 23.5982 8.0374 23.5982H10.6918C12.6477 23.4585 14.4639 22.271 15.7911 20.1754C17.258 18.01 18.0264 15.2159 18.0264 12.2122C18.0264 9.34823 17.258 6.48426 15.8609 4.38867C14.6036 2.29308 12.7175 1.10558 10.7617 0.826172Z" fill="#875F27"/>
<path d="M15.3738 12.2716C15.3738 9.26792 14.5356 6.75322 13.2782 4.72748C12.3701 3.40028 11.3223 2.35248 10.065 1.86351V1.30469H7.89953C3.84806 1.30469 0.495117 6.19439 0.495117 12.2017C0.495117 15.3451 1.40321 18.1392 2.80026 20.165C4.12747 21.9812 5.94365 23.1687 7.89953 23.1687H10.065V22.6797C13.2084 21.2128 15.3738 17.1613 15.3738 12.2716Z" fill="#F8B828"/>
<path d="M10.2032 23.2454H7.89809C5.94221 23.2454 4.12603 22.1278 2.72898 20.1021C1.26206 18.0065 0.423828 15.2123 0.423828 12.1388C0.423828 6.06161 3.84662 1.10205 7.96795 1.10205H10.2731V1.59102C11.4606 2.2197 12.5782 3.12779 13.4165 4.45499C14.7437 6.55058 15.5121 9.20499 15.5121 12.069C15.5121 16.8888 13.4165 21.08 10.3429 22.5469L10.2032 23.2454ZM7.96795 1.38146C3.98633 1.38146 0.70324 6.20132 0.70324 12.2087C0.70324 15.2123 1.54148 18.0065 2.93853 20.0322C4.26574 21.9881 6.08192 23.0359 7.96795 23.0359H10.0635V22.5469H10.1334C11.6003 21.8484 12.8577 20.5212 13.8356 18.705C14.8135 16.8888 15.3025 14.5138 15.3025 12.2087C15.3025 9.41455 14.5341 6.76014 13.2768 4.7344C12.2988 3.4072 11.1812 2.42926 10.0635 1.94029H9.99368V1.38146H7.96795Z" fill="#B28445"/>
<path d="M15.5819 4.6684C14.2547 2.57281 12.3687 1.24561 10.2731 1.24561C6.15177 1.31546 2.79883 6.20516 2.79883 12.1427C2.79883 15.286 3.70692 18.0802 5.10398 20.1059C6.43118 21.9221 8.24736 23.1096 10.2032 23.1096C14.2547 23.1096 17.6077 18.2199 17.6077 12.2125C17.5378 9.34855 16.8393 6.69414 15.5819 4.6684ZM10.6224 20.4552C10.4827 20.4552 10.4128 20.4552 10.2731 20.4552C8.80618 20.4552 7.47898 19.5471 6.43118 18.2199C5.38339 16.8228 4.68486 14.7971 4.68486 12.5618C4.68486 12.4221 4.68486 12.3522 4.68486 12.2125C4.68486 7.74193 7.19956 3.96987 10.2032 3.96987C10.3429 3.96987 10.4128 3.96987 10.5525 3.96987C13.4165 4.24928 15.7216 7.81178 15.7216 12.2125C15.7216 12.3522 15.7216 12.4221 15.7216 12.5618C15.6518 16.8228 13.4165 20.1758 10.6224 20.4552Z" fill="#F6E245"/>
<path d="M10.2018 23.2474C8.24592 23.2474 6.42974 22.1297 5.03269 20.104C3.56577 18.0084 2.72754 15.2143 2.72754 12.1408C2.72754 6.06356 6.08048 1.104 10.2018 1.104C12.2974 1.104 14.1834 2.2915 15.5805 4.5268C16.9077 6.62239 17.6761 9.2768 17.6761 12.1408C17.6062 18.2878 14.2533 23.2474 10.2018 23.2474ZM10.2018 1.38342C6.22019 1.38342 2.9371 6.20327 2.9371 12.2106C2.9371 15.2143 3.77533 18.0084 5.17239 20.0342C6.4996 21.99 8.31577 23.0378 10.2018 23.0378C14.1834 23.0378 17.4665 18.218 17.4665 12.2106C17.4665 9.4165 16.6981 6.76209 15.4408 4.73636C14.0437 2.57092 12.2275 1.38342 10.2018 1.38342ZM10.2018 20.593C8.73489 20.593 7.33783 19.7547 6.29004 18.2878C5.17239 16.8209 4.54372 14.7253 4.54372 12.5599C4.54372 12.4202 4.54372 12.3503 4.54372 12.2106C4.54372 7.60033 7.05842 3.82827 10.2717 3.82827C10.4114 3.82827 10.4812 3.82827 10.6209 3.82827C13.6246 4.10768 15.9297 7.74003 15.9297 12.2106C15.9297 12.3503 15.9297 12.4202 15.9297 12.5599C15.79 16.8209 13.5547 20.3136 10.6209 20.5231C10.4114 20.593 10.3415 20.593 10.2018 20.593ZM10.2018 4.10768C7.19813 4.10768 4.75327 7.74003 4.75327 12.2805C4.75327 12.4202 4.75327 12.49 4.75327 12.6297C4.82313 14.7952 5.4518 16.8209 6.4996 18.1481C7.54739 19.5452 8.8746 20.3834 10.2018 20.3834C10.3415 20.3834 10.4114 20.3834 10.5511 20.3834C13.3452 20.104 15.5106 16.7511 15.6503 12.6297C15.6503 12.49 15.6503 12.4202 15.6503 12.2805C15.6503 8.01945 13.415 4.45695 10.5511 4.10768C10.4114 4.10768 10.2018 4.10768 10.2018 4.10768Z" fill="#B28445"/>
<path d="M10.6238 4.05859C10.4841 4.05859 10.4142 4.05859 10.2745 4.05859C10.2047 4.05859 10.065 4.05859 9.99512 4.05859H10.065C12.9289 4.33801 15.2341 7.9005 15.2341 12.3012C15.2341 12.4409 15.2341 12.5108 15.2341 12.6505C15.0944 16.9115 12.8591 20.2645 10.065 20.474H9.99512C10.065 20.474 10.2047 20.474 10.2745 20.474C10.4142 20.474 10.4841 20.474 10.6238 20.474C13.4179 20.1946 15.7231 16.7718 15.7929 12.6505C15.7929 12.5108 15.7929 12.4409 15.7929 12.3012C15.7929 7.9005 13.4878 4.33801 10.6238 4.05859Z" fill="#F8B218"/>
<path d="M10.2052 20.6118C10.1353 20.6118 9.99563 20.6118 9.92578 20.6118V20.4023H9.99563C12.7898 20.1229 14.9552 16.7699 15.0949 12.6486C15.0949 12.5089 15.0949 12.4391 15.0949 12.2993C15.0949 8.03832 12.8596 4.47582 9.99563 4.12655H9.92578V3.91699C10.1353 3.91699 10.3449 3.91699 10.6942 3.91699C13.6978 4.1964 16.003 7.82876 16.003 12.2993C16.003 12.4391 16.003 12.5089 16.003 12.6486C15.8633 16.9096 13.628 20.4023 10.6942 20.6118C10.4148 20.6118 10.3449 20.6118 10.2052 20.6118ZM11.3228 4.33611C13.628 5.45376 15.2346 8.59714 15.2346 12.2993C15.2346 12.4391 15.2346 12.5089 15.2346 12.6486C15.1648 16.2111 13.4883 19.1449 11.3228 20.2626C13.6978 19.4942 15.5839 16.4207 15.5839 12.6486C15.5839 12.5089 15.5839 12.4391 15.5839 12.2993C15.6537 8.45743 13.8375 5.10449 11.3228 4.33611Z" fill="#B28445"/>
<path d="M13.3466 0.826172H10.6922C8.52677 0.826172 6.50103 2.01367 5.03412 4.24897C3.56721 6.34455 2.79883 9.20852 2.79883 12.2122C2.79883 15.3556 3.63706 18.2196 5.17383 20.385C6.64074 22.4806 8.59662 23.5982 10.6224 23.5982H13.2768C15.2327 23.4585 17.0488 22.271 18.376 20.1754C19.8429 18.01 20.6113 15.2159 20.6113 12.2122C20.6113 9.34823 19.8429 6.48426 18.4459 4.38867C17.1885 2.29308 15.3724 1.10558 13.3466 0.826172Z" fill="#875F27"/>
<path d="M17.9548 12.2716C17.9548 9.26792 17.1166 6.75322 15.8593 4.72748C14.9512 3.40028 13.9034 2.35248 12.646 1.86351V1.30469H10.4806C6.42911 1.30469 3.07617 6.19439 3.07617 12.2017C3.07617 15.3451 3.98426 18.1392 5.38132 20.165C6.70852 21.9812 8.5247 23.1687 10.4806 23.1687H12.646V22.6797C15.7894 21.2128 17.9548 17.1613 17.9548 12.2716Z" fill="#F8B828"/>
<path d="M12.9269 23.2454H10.6217C8.66584 23.2454 6.84967 22.1278 5.45261 20.1021C3.9857 18.0065 3.14746 15.1425 3.14746 12.1388C3.14746 6.06161 6.5004 1.10205 10.6217 1.10205H12.9269V1.59102C14.1144 2.2197 15.232 3.12779 16.0703 4.45499C17.3975 6.55058 18.1658 9.20499 18.1658 12.069C18.1658 14.444 17.6769 16.7491 16.6989 18.6351C15.721 20.4513 14.4636 21.8484 12.9967 22.5469L12.9269 23.2454ZM10.6217 1.38146C6.64011 1.38146 3.35702 6.20132 3.35702 12.2087C3.35702 15.2123 4.19526 18.0065 5.59231 20.0322C6.91952 21.9881 8.7357 23.0359 10.6217 23.0359H12.7173V22.5469H12.7872C14.2541 21.8484 15.5114 20.5212 16.4894 18.705C17.4673 16.8888 17.9563 14.5138 17.9563 12.2087C17.9563 9.41455 17.1879 6.76014 15.9305 4.7344C14.9526 3.4072 13.835 2.42926 12.7173 1.94029H12.6475V1.38146H10.6217Z" fill="#B28445"/>
<path d="M18.0951 4.6684C16.7679 2.57281 14.8818 1.24561 12.7862 1.24561C8.73478 1.24561 5.38184 6.13531 5.38184 12.1427C5.38184 15.286 6.28992 18.0802 7.68698 20.1059C9.01419 21.9221 10.8304 23.1096 12.7862 23.1096C16.8377 23.1096 20.1907 18.2199 20.1907 12.2125C20.2605 9.34855 19.3524 6.69414 18.0951 4.6684ZM13.2054 20.4552C13.0657 20.4552 12.9958 20.4552 12.8561 20.4552C11.3892 20.4552 10.062 19.5471 9.01419 18.2199C7.96639 16.8228 7.26787 14.7971 7.26787 12.5618C7.26787 12.4221 7.26787 12.3522 7.26787 12.2125C7.26787 7.74193 9.78257 3.96987 12.7862 3.96987C12.926 3.96987 12.9958 3.96987 13.1355 3.96987C15.9995 4.24928 18.3046 7.81178 18.3046 12.2125C18.3046 12.3522 18.3046 12.4221 18.3046 12.5618C18.3046 16.8228 15.9995 20.1758 13.2054 20.4552Z" fill="#F6E245"/>
<path d="M12.7868 23.2474C10.8309 23.2474 9.01471 22.1297 7.61765 20.104C6.15073 18.0084 5.3125 15.1444 5.3125 12.1408C5.3125 6.06356 8.66544 1.104 12.7868 1.104C14.8824 1.104 16.7684 2.2915 18.1654 4.5268C19.4926 6.62239 20.261 9.2768 20.261 12.1408C20.261 18.2878 16.9081 23.2474 12.7868 23.2474ZM12.7868 1.38342C8.80515 1.38342 5.52206 6.20327 5.52206 12.2106C5.52206 15.2143 6.36029 18.0084 7.75735 20.0342C9.08456 21.99 10.9007 23.0378 12.7868 23.0378C16.7684 23.0378 20.0515 18.218 20.0515 12.2106C20.0515 9.4165 19.2831 6.76209 18.0257 4.73636C16.6287 2.57092 14.8125 1.38342 12.7868 1.38342ZM12.7868 20.593C11.3199 20.593 9.92279 19.7547 8.875 18.2878C7.75735 16.8209 7.12868 14.7253 7.12868 12.5599C7.12868 12.4202 7.12868 12.3503 7.12868 12.2106C7.12868 7.60033 9.64338 3.82827 12.8566 3.82827C12.9963 3.82827 13.0662 3.82827 13.2059 3.82827C16.2096 4.10768 18.5147 7.74003 18.5147 12.2106C18.5147 12.3503 18.5147 12.4202 18.5147 12.5599C18.375 16.8209 16.1397 20.3136 13.2059 20.5231C13.136 20.593 12.9265 20.593 12.7868 20.593ZM12.7868 4.10768C9.78309 4.10768 7.33823 7.74003 7.33823 12.2805C7.33823 12.4202 7.33823 12.49 7.33823 12.6297C7.40809 14.7952 8.03676 16.8209 9.08456 18.1481C10.1324 19.5452 11.4596 20.3834 12.7868 20.3834C12.9265 20.3834 12.9963 20.3834 13.136 20.3834C15.9301 20.104 18.0956 16.7511 18.2353 12.6297C18.2353 12.49 18.2353 12.4202 18.2353 12.2805C18.2353 8.01945 16 4.45695 13.136 4.10768C13.0662 4.10768 12.9265 4.10768 12.7868 4.10768Z" fill="#B28445"/>
<path d="M13.2039 4.05859C13.0642 4.05859 12.9943 4.05859 12.8546 4.05859C12.7848 4.05859 12.645 4.05859 12.5752 4.05859H12.645C15.509 4.33801 17.8142 7.9005 17.8142 12.3012C17.8142 12.4409 17.8142 12.5108 17.8142 12.6505C17.6745 16.9115 15.4392 20.2645 12.645 20.474H12.5752C12.645 20.474 12.7848 20.474 12.8546 20.474C12.9943 20.474 13.0642 20.474 13.2039 20.474C15.998 20.1946 18.3031 16.7718 18.373 12.6505C18.373 12.5108 18.373 12.4409 18.373 12.3012C18.373 7.9005 16.0678 4.33801 13.2039 4.05859Z" fill="#F8B218"/>
<path d="M12.7858 20.6118C12.7159 20.6118 12.5762 20.6118 12.5064 20.6118V20.4023H12.5762C15.3005 20.1229 17.5358 16.7699 17.6056 12.6486C17.6056 12.5089 17.6056 12.4391 17.6056 12.2993C17.6056 8.03832 15.3703 4.47582 12.5064 4.12655H12.4365V3.91699C12.6461 3.91699 12.8556 3.91699 13.2049 3.91699C16.2086 4.1964 18.5137 7.82876 18.5137 12.2993C18.5137 12.4391 18.5137 12.5089 18.5137 12.6486C18.374 16.9096 16.1387 20.4023 13.2049 20.6118C13.1351 20.6118 12.9255 20.6118 12.7858 20.6118ZM13.9034 4.33611C16.2086 5.45376 17.8152 8.59714 17.8152 12.2993C17.8152 12.4391 17.8152 12.5089 17.8152 12.6486C17.7453 16.2111 16.0689 19.1449 13.9034 20.2626C16.2784 19.4942 18.1645 16.4207 18.1645 12.6486C18.1645 12.5089 18.1645 12.4391 18.1645 12.2993C18.3042 8.45743 16.4181 5.10449 13.9034 4.33611Z" fill="#B28445"/>
<path d="M15.789 0.826172H13.1346C10.9692 0.826172 8.94342 2.01367 7.47651 4.24897C6.00959 6.41441 5.24121 9.20852 5.24121 12.2122C5.24121 15.3556 6.07945 18.2196 7.61621 20.385C9.08312 22.4806 11.039 23.5982 13.0647 23.5982H15.7192C17.675 23.4585 19.4912 22.271 20.8184 20.1754C22.2853 18.01 23.0537 15.2159 23.0537 12.2122C23.0537 9.34823 22.2853 6.48426 20.8883 4.38867C19.7008 2.29308 17.8147 1.10558 15.789 0.826172Z" fill="#875F27"/>
<path d="M20.4666 12.2765C20.4666 9.27281 19.6283 6.7581 18.371 4.73236C17.4629 3.40516 16.4151 2.35736 15.1577 1.86839V1.30957H12.9923C8.94083 1.30957 5.58789 6.19928 5.58789 12.2066C5.58789 15.35 6.49598 18.1441 7.89304 20.1699C9.22024 21.986 11.0364 23.1735 12.9923 23.1735H15.2276V22.6846C18.3011 21.2177 20.4666 17.1662 20.4666 12.2765Z" fill="#F8B828"/>
<path d="M15.3673 23.2503H13.0622C11.1063 23.2503 9.2901 22.1327 7.89304 20.1069C6.42613 18.0113 5.58789 15.1474 5.58789 12.1437C5.58789 6.06649 9.01069 1.10693 13.0622 1.10693H15.3673V1.5959C16.5548 2.22458 17.6725 3.13267 18.5107 4.45987C19.8379 6.55546 20.6063 9.20988 20.6063 12.0738C20.6063 16.8937 18.5107 21.0849 15.4372 22.5518L15.3673 23.2503ZM13.132 1.38635C9.15039 1.38635 5.8673 6.2062 5.8673 12.2136C5.8673 15.2172 6.70554 18.0113 8.1026 20.0371C9.4298 21.993 11.246 23.0408 13.132 23.0408H15.2276V22.5518H15.2974C16.7644 21.8533 18.0217 20.5261 18.9997 18.7099C19.9776 16.8937 20.4666 14.5187 20.4666 12.2136C20.4666 9.41943 19.6982 6.76502 18.4408 4.73929C17.5327 3.41208 16.4151 2.43414 15.2276 1.94517H15.1577V1.38635H13.132Z" fill="#B28445"/>
<path d="M20.6078 4.65522C19.2806 2.55963 17.3945 1.23242 15.2989 1.23242C11.2475 1.23242 7.89453 6.12213 7.89453 12.1295C7.89453 15.2729 8.80262 18.067 10.1997 20.0927C11.5269 21.9089 13.3431 23.0964 15.2989 23.0964C19.3504 23.0964 22.7034 18.2067 22.7034 12.1993C22.7034 9.33536 21.935 6.68095 20.6078 4.65522ZM15.6482 20.442C15.5085 20.442 15.4386 20.442 15.2989 20.442C13.832 20.442 12.5048 19.5339 11.457 18.2067C10.4092 16.8096 9.71071 14.7839 9.71071 12.5486C9.71071 12.4089 9.71071 12.339 9.71071 12.1993C9.71071 7.72874 12.2254 3.95669 15.2291 3.95669C15.3688 3.95669 15.4386 3.95669 15.5784 3.95669C18.4423 4.2361 20.7475 7.7986 20.7475 12.1993C20.7475 12.339 20.7475 12.4089 20.7475 12.5486C20.7475 16.8096 18.5122 20.1626 15.6482 20.442Z" fill="#F6E245"/>
<path d="M15.3688 23.2386C13.4129 23.2386 11.5967 22.1209 10.1997 20.0952C8.73277 17.9996 7.89453 15.1356 7.89453 12.132C7.89453 6.1246 11.1776 1.16504 15.3688 1.16504C17.4644 1.16504 19.3504 2.35254 20.7475 4.58783C22.0747 6.68342 22.8431 9.33783 22.8431 12.2018C22.7732 18.279 19.4901 23.2386 15.3688 23.2386ZM15.3688 1.3746C11.3872 1.3746 8.10409 6.19445 8.10409 12.2018C8.10409 15.2055 8.94232 17.9996 10.3394 20.0253C11.6666 21.9812 13.4828 23.029 15.3688 23.029C19.3504 23.029 22.6335 18.2092 22.6335 12.2018C22.6335 9.40769 21.8651 6.75327 20.6078 4.72754C19.1409 2.5621 17.2548 1.3746 15.3688 1.3746ZM15.3688 20.5842C13.9019 20.5842 12.5048 19.7459 11.457 18.279C10.3394 16.8121 9.71071 14.7165 9.71071 12.5511C9.71071 12.4114 9.71071 12.3415 9.71071 12.2018C9.71071 7.59151 12.2254 3.81945 15.4386 3.81945C15.5784 3.81945 15.6482 3.81945 15.7879 3.81945C18.7916 4.09886 21.0967 7.73122 21.0967 12.2018C21.0967 12.3415 21.0967 12.4114 21.0967 12.5511C20.957 16.8121 18.7217 20.3047 15.7879 20.5143C15.5784 20.5842 15.3688 20.5842 15.3688 20.5842ZM15.3688 4.09886C12.3651 4.09886 9.92027 7.73122 9.92027 12.2717C9.92027 12.4114 9.92027 12.4812 9.92027 12.6209C9.99012 14.7864 10.6188 16.8121 11.6666 18.1393C12.7144 19.5364 14.0416 20.3746 15.3688 20.3746C15.5085 20.3746 15.5784 20.3746 15.7181 20.3746C18.5122 20.0952 20.6776 16.7422 20.8173 12.6209C20.8173 12.4812 20.8173 12.4114 20.8173 12.2717C20.8173 8.01063 18.582 4.44813 15.7181 4.09886C15.5784 4.09886 15.3688 4.09886 15.3688 4.09886Z" fill="#B28445"/>
<path d="M15.6492 4.05469C15.5095 4.05469 15.4396 4.05469 15.2999 4.05469C15.2301 4.05469 15.0904 4.05469 15.0205 4.05469H15.0904C17.9543 4.3341 20.2595 7.8966 20.2595 12.2973C20.2595 12.437 20.2595 12.5069 20.2595 12.6466C20.1198 16.9076 17.8845 20.2606 15.0904 20.4701H15.0205C15.0904 20.4701 15.2301 20.4701 15.2999 20.4701C15.4396 20.4701 15.5095 20.4701 15.6492 20.4701C18.4433 20.1907 20.7484 16.7679 20.8183 12.6466C20.8183 12.5069 20.8183 12.437 20.8183 12.2973C20.8882 7.8966 18.583 4.3341 15.6492 4.05469Z" fill="#F8B218"/>
<path d="M15.3693 20.6079C15.2994 20.6079 15.1597 20.6079 15.0898 20.6079V20.3984H15.1597C17.9538 20.119 20.1193 16.766 20.259 12.6447C20.259 12.505 20.259 12.4351 20.259 12.2954C20.259 8.03441 18.0237 4.47191 15.1597 4.12264H15.0898V3.91309C15.2994 3.91309 15.509 3.91309 15.8582 3.91309C18.8619 4.1925 21.167 7.82485 21.167 12.2954C21.167 12.4351 21.167 12.505 21.167 12.6447C20.9575 16.9057 18.7222 20.3285 15.7884 20.6079C15.5788 20.6079 15.3693 20.6079 15.3693 20.6079ZM16.417 4.3322C18.7222 5.44985 20.3288 8.59323 20.3288 12.2954C20.3288 12.4351 20.3288 12.505 20.3288 12.6447C20.259 16.2072 18.5825 19.141 16.417 20.2587C18.792 19.4903 20.6781 16.4168 20.6781 12.6447C20.6781 12.505 20.6781 12.4351 20.6781 12.2954C20.7479 8.45353 18.9318 5.10059 16.417 4.3322Z" fill="#B28445"/>
<path d="M13.6912 14.583V17.2374H12.9229V16.1198L13.6912 14.583Z" fill="#F6E245"/>
<path d="M14.6027 12.8452L14.952 13.4739V13.5437V17.2459H14.1836V13.6136L14.6027 12.8452Z" fill="#F6E245"/>
<path d="M16.1385 13.1235V17.2449H15.3701V14.7302L15.5797 14.5904L16.0686 13.4728L16.1385 13.1235Z" fill="#F6E245"/>
<path d="M17.4647 10.6045V17.2405H16.6963V12.1413L17.4647 10.6045Z" fill="#F6E245"/>
<path d="M15.368 13.3808H15.1584L14.5996 12.2632H14.9489L15.368 13.3808Z" fill="#875F27"/>
<path d="M12.9215 16.1099H12.5723V17.2974H12.9215V16.1099Z" fill="#875F27"/>
<path d="M12.9215 16.1188H12.5723L13.3406 14.582H13.6899L12.9215 16.1188Z" fill="#875F27"/>
<path d="M14.2506 13.5957H13.9014V17.2281H14.2506V13.5957Z" fill="#875F27"/>
<path d="M14.1808 13.6077H13.9014L14.2506 12.8394H14.5999L14.1808 13.6077Z" fill="#875F27"/>
<path d="M16.0646 13.4674H15.6455L15.8551 13.1182H16.1345L16.0646 13.4674Z" fill="#875F27"/>
<path d="M15.5763 14.5849H15.1572L15.6462 13.4673H16.0653L15.5763 14.5849Z" fill="#875F27"/>
<path d="M15.3668 14.7217H15.1572V14.582H15.5763L15.3668 14.7217Z" fill="#875F27"/>
<path d="M15.5065 14.7168H15.1572V17.3712H15.5065V14.7168Z" fill="#875F27"/>
<path d="M16.7672 12.1362H16.418V17.2355H16.7672V12.1362Z" fill="#875F27"/>
<path d="M16.6974 12.1403H16.418L17.1864 10.6035H17.4658L16.6974 12.1403Z" fill="#875F27"/>
<path d="M17.9499 9.0598H17.6006L17.4609 8.50098H17.8102L17.9499 9.0598Z" fill="#875F27"/>
<path d="M17.2532 7.37371H16.9039L16.6943 6.95459H17.0436L17.2532 7.37371Z" fill="#875F27"/>
<path d="M15.3668 11.0977H15.1572L16.9036 7.39551H17.2528L15.3668 11.0977Z" fill="#875F27"/>
<path d="M14.9505 12.2889H14.6012L14.252 11.5903H14.6711L14.9505 12.2889Z" fill="#875F27"/>
<path d="M14.1081 10.4594H13.7588L14.2478 9.41162H14.6669L14.1081 10.4594Z" fill="#875F27"/>
<path d="M12.2912 14.381H11.8721L13.7581 10.4692H14.1074L12.2912 14.381Z" fill="#875F27"/>
<path d="M12.7802 15.3451H12.4309L11.8721 14.3672H12.2912L12.7802 15.3451Z" fill="#875F27"/>
<path d="M17.0488 6.95557H17.9569V9.05115L17.8172 8.49233L16.001 12.2644L15.3724 13.382L14.9532 12.2644L14.6738 11.5659L12.7878 15.3379L12.2988 14.36L14.115 10.4482L14.6738 9.40042L15.1628 10.4482L15.3724 11.0769L17.2584 7.37468L17.0488 6.95557Z" fill="#F6E245"/>
</g>
<defs>
<clipPath id="clip0_6103_76804">
<rect width="146.691" height="23.75" fill="white" transform="translate(0 0.125)"/>
</clipPath>
</defs>
</svg>
