<svg width="185" height="30" viewBox="0 0 185 30" fill="none" xmlns="http://www.w3.org/2000/svg">
<path d="M33.4751 15.789C33.4751 12.789 34.4441 10.3184 36.206 8.37724C38.056 6.43606 40.3465 5.55371 43.2537 5.55371C45.7203 5.55371 47.8346 6.25959 49.5084 7.67136C51.1822 9.08312 52.2394 10.9361 52.5918 13.2302H48.2751C47.7465 10.7596 45.7203 9.43606 43.0775 9.43606C39.5537 9.43606 37.5275 11.9067 37.5275 15.7008C37.5275 19.4949 39.6418 21.9655 43.0775 21.9655C45.7203 21.9655 47.6584 20.6419 48.2751 18.1714H52.768C52.4156 20.5537 51.4465 22.3184 49.6846 23.7302C47.9227 25.0537 45.8965 25.8478 43.4299 25.8478C40.6108 25.8478 38.2322 24.8772 36.3822 23.0243C34.4441 21.2596 33.4751 18.789 33.4751 15.789Z" fill="white"/>
<path d="M62.105 25.9294C59.8145 25.9294 58.0526 25.2235 56.6431 23.7235C55.2336 22.2235 54.5288 20.547 54.5288 18.3412C54.5288 16.1353 55.2336 14.4588 56.6431 12.9588C57.9645 11.4588 59.8145 10.7529 62.105 10.7529C64.3955 10.7529 66.1574 11.4588 67.5669 12.9588C68.8883 14.4588 69.6812 16.2235 69.6812 18.3412C69.6812 20.4588 68.9764 22.2235 67.5669 23.7235C66.1574 25.1353 64.3074 25.9294 62.105 25.9294ZM58.4931 18.5176C58.4931 19.7529 58.8455 20.8118 59.4621 21.5176C60.1669 22.2235 61.0479 22.5765 62.105 22.5765C63.1621 22.5765 64.0431 22.2235 64.7479 21.5176C65.4526 20.8118 65.7169 19.7529 65.7169 18.5176C65.7169 17.2823 65.3645 16.2235 64.7479 15.5176C64.1312 14.8118 63.1621 14.4588 62.105 14.4588C61.0479 14.4588 60.1669 14.8118 59.4621 15.5176C58.7574 16.1353 58.4931 17.1941 58.4931 18.5176Z" fill="white"/>
<path d="M72.3238 25.6703V11.2879H76.2V25.6703H72.3238ZM74.2619 9.34674C73.5571 9.34674 73.0285 9.17027 72.5 8.72909C72.1476 8.28791 71.8833 7.7585 71.8833 6.96438C71.8833 6.2585 72.0595 5.72909 72.5 5.19968C72.9404 4.7585 73.469 4.58203 74.2619 4.58203C75.0547 4.58203 75.4952 4.7585 76.0238 5.19968C76.4643 5.72909 76.6404 6.2585 76.6404 6.96438C76.6404 7.67027 76.4643 8.19968 76.0238 8.55262C75.4952 9.17027 74.9666 9.34674 74.2619 9.34674Z" fill="white"/>
<path d="M83.4252 11.1996V12.9643C84.1299 11.6408 85.6276 10.8467 87.7418 10.8467C91.0895 10.8467 93.0276 13.0526 93.0276 16.582V25.582H89.1514V17.0231C89.1514 15.082 88.3585 14.1996 86.6847 14.1996C84.7466 14.1996 83.7776 15.4349 83.7776 17.2879V25.582H79.9014V11.1996H83.4252Z" fill="white"/>
<path d="M101.662 20.9045L105.186 11.1104H109.238L103.424 25.4927H99.8121L94.0859 11.1104H98.2264L101.662 20.9045Z" fill="white"/>
<path d="M123.773 19.4905H113.289C113.553 21.5199 114.875 22.5788 116.725 22.5788C117.958 22.5788 119.103 22.0493 119.456 20.9905H123.332C122.892 22.4905 122.099 23.6376 120.865 24.5199C119.632 25.4905 118.134 25.8435 116.461 25.8435C114.346 25.8435 112.584 25.1376 111.263 23.7258C109.942 22.4023 109.237 20.5493 109.237 18.2552C109.237 16.0493 109.942 14.3729 111.263 12.8729C112.496 11.3729 114.346 10.667 116.461 10.667C118.575 10.667 120.249 11.3729 121.658 12.7846C122.892 14.2846 123.684 15.9611 123.684 18.167V19.4905H123.773ZM113.289 16.667H119.896C119.632 15.0788 118.399 13.9317 116.637 13.9317C114.875 13.9317 113.73 15.0788 113.289 16.667Z" fill="white"/>
<path d="M125.359 20.9045H129.236C129.324 21.9633 130.028 22.8456 131.614 22.8456C133.112 22.8456 133.905 22.3162 133.905 21.6104C133.905 20.6398 132.671 20.3751 131.086 20.1103C130.293 19.9339 129.5 19.8456 128.707 19.5809C127.121 19.1398 125.888 17.8162 125.888 15.7868C125.888 14.4633 126.417 13.3162 127.474 12.4339C128.531 11.5515 129.94 11.1104 131.614 11.1104C133.552 11.1104 134.962 11.5515 136.019 12.6104C136.988 13.5809 137.517 14.728 137.605 15.9633H133.817C133.728 14.9927 133.024 14.1986 131.614 14.1986C130.381 14.1986 129.588 14.8162 129.588 15.5221C129.588 16.4927 130.821 16.7574 132.407 17.0221C133.112 17.1986 133.993 17.2868 134.786 17.5515C136.371 17.9927 137.605 19.3162 137.605 21.4339C137.605 22.7574 137.076 23.9045 136.019 24.6986C134.962 25.6692 133.464 25.9339 131.526 25.9339C127.65 25.9339 125.536 24.2574 125.359 20.9045Z" fill="white"/>
<path d="M146.943 22.1353V25.4883C146.502 25.5765 145.974 25.6648 145.093 25.6648C142.185 25.6648 140.6 24.1648 140.6 21.253V14.1059H138.662V11.0177H140.6V7.48828H144.476V11.0177H146.854V14.1059H144.652V20.7236C144.652 21.6942 145.093 22.0471 146.15 22.0471H146.943V22.1353Z" fill="white"/>
<path d="M148.703 21.6114C148.703 19.0526 150.465 17.5526 154.253 17.0231L158.041 16.4937V16.229C158.041 14.9055 157.248 14.1114 155.486 14.1114C153.9 14.1114 153.019 14.6408 152.843 15.8761H149.055C149.231 14.5526 149.76 13.3173 150.817 12.3467C151.786 11.3761 153.46 10.8467 155.574 10.8467C159.715 10.8467 161.829 12.7879 161.829 16.229V23.0232C161.829 24.082 162.005 24.9643 162.269 25.582H158.569C158.569 25.582 158.393 24.8761 158.393 23.9937C157.424 25.229 155.926 25.9349 153.812 25.9349C150.465 25.9349 148.703 24.1702 148.703 21.6114ZM158.041 19.0526L154.605 19.582C153.107 19.8467 152.403 20.3761 152.403 21.3467C152.403 22.3173 153.107 22.9349 154.605 22.9349C156.807 22.9349 158.041 21.6996 158.041 19.7584V19.0526Z" fill="white"/>
<path d="M164.121 20.9045H167.997C168.085 21.9633 168.79 22.8456 170.376 22.8456C171.873 22.8456 172.666 22.3162 172.666 21.6104C172.666 20.6398 171.433 20.3751 169.847 20.1103C169.054 19.9339 168.262 19.8456 167.469 19.5809C165.883 19.1398 164.65 17.8162 164.65 15.7868C164.65 14.4633 165.178 13.3162 166.235 12.4339C167.293 11.4633 168.702 11.1104 170.376 11.1104C172.314 11.1104 173.723 11.5515 174.781 12.6104C175.75 13.5809 176.278 14.728 176.366 15.9633H172.666C172.578 14.9927 171.873 14.1986 170.464 14.1986C169.231 14.1986 168.438 14.8162 168.438 15.5221C168.438 16.4927 169.671 16.7574 171.257 17.0221C171.962 17.1986 172.843 17.2868 173.635 17.5515C175.221 17.9927 176.454 19.3162 176.454 21.4339C176.454 22.7574 175.926 23.9045 174.869 24.6986C173.812 25.6692 172.314 25.9339 170.376 25.9339C166.412 25.9339 164.385 24.2574 164.121 20.9045Z" fill="white"/>
<path d="M179.008 25.6725V11.2902H182.884V25.6725H179.008ZM180.946 9.34898C180.241 9.34898 179.713 9.17251 179.184 8.73133C178.655 8.29015 178.567 7.76074 178.567 7.1431C178.567 6.43721 178.744 5.9078 179.184 5.37839C179.625 4.93721 180.153 4.76074 180.946 4.76074C181.651 4.76074 182.179 4.93721 182.708 5.37839C183.148 5.81957 183.325 6.34898 183.325 7.1431C183.325 7.84898 183.148 8.37839 182.708 8.73133C182.267 9.17251 181.651 9.34898 180.946 9.34898Z" fill="white"/>
<path d="M13.5719 0.885742H10.2243C7.49334 0.885742 4.93858 2.38574 3.08858 5.20927C1.23858 7.85633 0.269531 11.474 0.269531 15.2681C0.269531 19.2387 1.32667 22.8563 3.26477 25.5916C5.11477 28.2387 7.58144 29.6504 10.1362 29.6504H13.4838C15.9505 29.474 18.241 27.974 19.9148 25.3269C21.7648 22.5916 22.7338 19.0622 22.7338 15.2681C22.7338 11.6504 21.7648 8.0328 20.0029 5.38574C18.4172 2.73868 16.0386 1.23868 13.5719 0.885742Z" fill="#875F27"/>
<path d="M19.3883 15.3432C19.3883 11.5491 18.3312 8.37259 16.7455 5.81376C15.6002 4.13729 14.2788 2.81376 12.6931 2.19612V1.49023H9.96212C4.8526 1.49023 0.624023 7.6667 0.624023 15.2549C0.624023 19.2255 1.76926 22.7549 3.53117 25.3138C5.20498 27.6079 7.49545 29.1079 9.96212 29.1079H12.6931V28.4902C16.6574 26.6373 19.3883 21.5196 19.3883 15.3432Z" fill="#F8B828"/>
<path d="M12.868 29.205H9.96086C7.49419 29.205 5.20372 27.7932 3.44181 25.2344C1.59181 22.5873 0.534668 19.0579 0.534668 15.1756C0.534668 7.49908 4.85133 1.23438 10.049 1.23438H12.9561V1.85202C14.4537 2.64614 15.8632 3.7932 16.9204 5.46967C18.5942 8.11673 19.5632 11.4697 19.5632 15.0873C19.5632 21.1756 16.9204 26.4697 13.0442 28.3226L12.868 29.205ZM10.049 1.58732C5.02752 1.58732 0.887049 7.67555 0.887049 15.2638C0.887049 19.0579 1.94419 22.5873 3.7061 25.1461C5.37991 27.6167 7.67038 28.9403 10.049 28.9403H12.6918V28.3226H12.7799C14.6299 27.4403 16.2156 25.7638 17.449 23.4697C18.6823 21.1756 19.299 18.1756 19.299 15.2638C19.299 11.7344 18.3299 8.38143 16.7442 5.82261C15.5109 4.14614 14.1013 2.91085 12.6918 2.2932H12.6037V1.58732H10.049Z" fill="#B28445"/>
<path d="M19.6512 5.73857C17.9774 3.09151 15.5988 1.41504 12.956 1.41504C7.75836 1.50327 3.52979 7.67975 3.52979 15.1797C3.52979 19.1503 4.67502 22.6797 6.43693 25.2386C8.11074 27.5327 10.4012 29.0327 12.8679 29.0327C17.9774 29.0327 22.206 22.8562 22.206 15.268C22.1179 11.6503 21.2369 8.29739 19.6512 5.73857ZM13.3965 25.6797C13.2203 25.6797 13.1322 25.6797 12.956 25.6797C11.106 25.6797 9.43217 24.5327 8.11074 22.8562C6.78931 21.0915 5.90836 18.5327 5.90836 15.7092C5.90836 15.5327 5.90836 15.4445 5.90836 15.268C5.90836 9.62092 9.07979 4.85622 12.8679 4.85622C13.0441 4.85622 13.1322 4.85622 13.3084 4.85622C16.9203 5.20916 19.8274 9.70916 19.8274 15.268C19.8274 15.4445 19.8274 15.5327 19.8274 15.7092C19.7393 21.0915 16.9203 25.3268 13.3965 25.6797Z" fill="#F6E245"/>
<path d="M12.8666 29.2069C10.4 29.2069 8.10948 27.7952 6.34757 25.2363C4.49757 22.5893 3.44043 19.0599 3.44043 15.1775C3.44043 7.50104 7.669 1.23633 12.8666 1.23633C15.5095 1.23633 17.888 2.73633 19.65 5.55986C21.3238 8.20692 22.2928 11.5599 22.2928 15.1775C22.2047 22.9422 17.9761 29.2069 12.8666 29.2069ZM12.8666 1.58927C7.84519 1.58927 3.70472 7.6775 3.70472 15.2657C3.70472 19.0599 4.76186 22.5893 6.52376 25.1481C8.19757 27.6187 10.488 28.9422 12.8666 28.9422C17.888 28.9422 22.0285 22.854 22.0285 15.2657C22.0285 11.7363 21.0595 8.38339 19.4738 5.82456C17.7119 3.08927 15.4214 1.58927 12.8666 1.58927ZM12.8666 25.854C11.0166 25.854 9.25471 24.7952 7.93329 22.9422C6.52376 21.0893 5.73091 18.4422 5.73091 15.7069C5.73091 15.5304 5.73091 15.4422 5.73091 15.2657C5.73091 9.44221 8.90234 4.67751 12.9547 4.67751C13.1309 4.67751 13.219 4.67751 13.3952 4.67751C17.1833 5.03045 20.0904 9.61868 20.0904 15.2657C20.0904 15.4422 20.0904 15.5304 20.0904 15.7069C19.9142 21.0893 17.0952 25.501 13.3952 25.7657C13.1309 25.854 13.0428 25.854 12.8666 25.854ZM12.8666 5.03045C9.07853 5.03045 5.99519 9.61868 5.99519 15.354C5.99519 15.5304 5.99519 15.6187 5.99519 15.7952C6.08329 18.5304 6.87614 21.0893 8.19757 22.7657C9.519 24.5304 11.1928 25.5893 12.8666 25.5893C13.0428 25.5893 13.1309 25.5893 13.3071 25.5893C16.8309 25.2363 19.5619 21.001 19.738 15.7952C19.738 15.6187 19.738 15.5304 19.738 15.354C19.738 9.97162 16.919 5.47162 13.3071 5.03045C13.1309 5.03045 12.8666 5.03045 12.8666 5.03045Z" fill="#B28445"/>
<path d="M13.3988 4.96777C13.2226 4.96777 13.1345 4.96777 12.9583 4.96777C12.8702 4.96777 12.6941 4.96777 12.606 4.96777H12.6941C16.306 5.32071 19.2131 9.82071 19.2131 15.3795C19.2131 15.556 19.2131 15.6442 19.2131 15.8207C19.0369 21.2031 16.2179 25.4384 12.6941 25.7031H12.606C12.6941 25.7031 12.8702 25.7031 12.9583 25.7031C13.1345 25.7031 13.2226 25.7031 13.3988 25.7031C16.9226 25.3501 19.8298 21.0266 19.9179 15.8207C19.9179 15.6442 19.9179 15.556 19.9179 15.3795C19.9179 9.82071 17.0107 5.32071 13.3988 4.96777Z" fill="#F8B218"/>
<path d="M12.8709 25.8773C12.7828 25.8773 12.6066 25.8773 12.5186 25.8773V25.6126H12.6066C16.1305 25.2597 18.8614 21.0244 19.0376 15.8185C19.0376 15.642 19.0376 15.5538 19.0376 15.3773C19.0376 9.99495 16.2186 5.49494 12.6066 5.05377H12.5186V4.78906C12.7828 4.78906 13.0471 4.78906 13.4876 4.78906C17.2757 5.142 20.1828 9.73024 20.1828 15.3773C20.1828 15.5538 20.1828 15.642 20.1828 15.8185C20.0066 21.2008 17.1876 25.6126 13.4876 25.8773C13.1352 25.8773 13.0471 25.8773 12.8709 25.8773ZM14.2805 5.31847C17.1876 6.73024 19.2138 10.7008 19.2138 15.3773C19.2138 15.5538 19.2138 15.642 19.2138 15.8185C19.1257 20.3185 17.0114 24.0244 14.2805 25.4361C17.2757 24.4655 19.6543 20.5832 19.6543 15.8185C19.6543 15.642 19.6543 15.5538 19.6543 15.3773C19.7424 10.5244 17.4519 6.28906 14.2805 5.31847Z" fill="#B28445"/>
<path d="M16.8312 0.885742H13.4836C10.7526 0.885742 8.19786 2.38574 6.34786 5.20927C4.49786 7.85633 3.52881 11.474 3.52881 15.2681C3.52881 19.2387 4.58595 22.8563 6.52405 25.5916C8.37405 28.2387 10.8407 29.6504 13.3955 29.6504H16.7431C19.2098 29.474 21.5002 27.974 23.174 25.3269C25.024 22.5916 25.9931 19.0622 25.9931 15.2681C25.9931 11.6504 25.024 8.0328 23.2621 5.38574C21.6764 2.73868 19.386 1.23868 16.8312 0.885742Z" fill="#875F27"/>
<path d="M22.6427 15.3432C22.6427 11.5491 21.5856 8.37259 19.9998 5.81376C18.8546 4.13729 17.5332 2.81376 15.9475 2.19612V1.49023H13.2165C8.10699 1.49023 3.87842 7.6667 3.87842 15.2549C3.87842 19.2255 5.02366 22.7549 6.78556 25.3138C8.45937 27.6079 10.7498 29.1079 13.2165 29.1079H15.9475V28.4902C19.9118 26.6373 22.6427 21.5196 22.6427 15.3432Z" fill="#F8B828"/>
<path d="M16.3011 29.205H13.394C10.9273 29.205 8.63682 27.7932 6.87492 25.2344C5.02492 22.5873 3.96777 18.9697 3.96777 15.1756C3.96777 7.49908 8.19635 1.23438 13.394 1.23438H16.3011V1.85202C17.7987 2.64614 19.2082 3.7932 20.2654 5.46967C21.9392 8.11673 22.9082 11.4697 22.9082 15.0873C22.9082 18.0873 22.2916 20.9991 21.0582 23.3814C19.8249 25.6756 18.2392 27.4403 16.3892 28.3226L16.3011 29.205ZM13.394 1.58732C8.37254 1.58732 4.23206 7.67555 4.23206 15.2638C4.23206 19.0579 5.2892 22.5873 7.05111 25.1461C8.72492 27.6167 11.0154 28.9403 13.394 28.9403H16.0368V28.3226H16.1249C17.9749 27.4403 19.5606 25.7638 20.794 23.4697C22.0273 21.1756 22.644 18.1756 22.644 15.2638C22.644 11.7344 21.6749 8.38143 20.0892 5.82261C18.8559 4.14614 17.4463 2.91085 16.0368 2.2932H15.9487V1.58732H13.394Z" fill="#B28445"/>
<path d="M22.8195 5.73857C21.1457 3.09151 18.7671 1.41504 16.1242 1.41504C11.0147 1.41504 6.78613 7.59151 6.78613 15.1797C6.78613 19.1503 7.93137 22.6797 9.69328 25.2386C11.3671 27.5327 13.6576 29.0327 16.1242 29.0327C21.2338 29.0327 25.4623 22.8562 25.4623 15.268C25.5504 11.6503 24.4052 8.29739 22.8195 5.73857ZM16.6528 25.6797C16.4766 25.6797 16.3885 25.6797 16.2123 25.6797C14.3623 25.6797 12.6885 24.5327 11.3671 22.8562C10.0457 21.0915 9.1647 18.5327 9.1647 15.7092C9.1647 15.5327 9.1647 15.4445 9.1647 15.268C9.1647 9.62092 12.3361 4.85622 16.1242 4.85622C16.3004 4.85622 16.3885 4.85622 16.5647 4.85622C20.1766 5.20916 23.0838 9.70916 23.0838 15.268C23.0838 15.4445 23.0838 15.5327 23.0838 15.7092C23.0838 21.0915 20.1766 25.3268 16.6528 25.6797Z" fill="#F6E245"/>
<path d="M16.1249 29.2069C13.6583 29.2069 11.3678 27.7952 9.60587 25.2363C7.75587 22.5893 6.69873 18.9716 6.69873 15.1775C6.69873 7.50104 10.9273 1.23633 16.1249 1.23633C18.7678 1.23633 21.1463 2.73633 22.9083 5.55986C24.5821 8.20692 25.5511 11.5599 25.5511 15.1775C25.5511 22.9422 21.3225 29.2069 16.1249 29.2069ZM16.1249 1.58927C11.1035 1.58927 6.96302 7.6775 6.96302 15.2657C6.96302 19.0599 8.02016 22.5893 9.78206 25.1481C11.4559 27.6187 13.7463 28.9422 16.1249 28.9422C21.1463 28.9422 25.2868 22.854 25.2868 15.2657C25.2868 11.7363 24.3178 8.38339 22.7321 5.82456C20.9702 3.08927 18.6797 1.58927 16.1249 1.58927ZM16.1249 25.854C14.2749 25.854 12.513 24.7952 11.1916 22.9422C9.78206 21.0893 8.98921 18.4422 8.98921 15.7069C8.98921 15.5304 8.98921 15.4422 8.98921 15.2657C8.98921 9.44221 12.1606 4.67751 16.213 4.67751C16.3892 4.67751 16.4773 4.67751 16.6535 4.67751C20.4416 5.03045 23.3487 9.61868 23.3487 15.2657C23.3487 15.4422 23.3487 15.5304 23.3487 15.7069C23.1725 21.0893 20.3535 25.501 16.6535 25.7657C16.5654 25.854 16.3011 25.854 16.1249 25.854ZM16.1249 5.03045C12.3368 5.03045 9.25349 9.61868 9.25349 15.354C9.25349 15.5304 9.25349 15.6187 9.25349 15.7952C9.34159 18.5304 10.1344 21.0893 11.4559 22.7657C12.7773 24.5304 14.4511 25.5893 16.1249 25.5893C16.3011 25.5893 16.3892 25.5893 16.5654 25.5893C20.0892 25.2363 22.8202 21.001 22.9963 15.7952C22.9963 15.6187 22.9963 15.5304 22.9963 15.354C22.9963 9.97162 20.1773 5.47162 16.5654 5.03045C16.4773 5.03045 16.3011 5.03045 16.1249 5.03045Z" fill="#B28445"/>
<path d="M16.6508 4.96777C16.4746 4.96777 16.3865 4.96777 16.2103 4.96777C16.1222 4.96777 15.946 4.96777 15.8579 4.96777H15.946C19.5579 5.32071 22.4651 9.82071 22.4651 15.3795C22.4651 15.556 22.4651 15.6442 22.4651 15.8207C22.2889 21.2031 19.4698 25.4384 15.946 25.7031H15.8579C15.946 25.7031 16.1222 25.7031 16.2103 25.7031C16.3865 25.7031 16.4746 25.7031 16.6508 25.7031C20.1746 25.3501 23.0817 21.0266 23.1698 15.8207C23.1698 15.6442 23.1698 15.556 23.1698 15.3795C23.1698 9.82071 20.2627 5.32071 16.6508 4.96777Z" fill="#F8B218"/>
<path d="M16.1241 25.8773C16.036 25.8773 15.8598 25.8773 15.7717 25.8773V25.6126H15.8598C19.2955 25.2597 22.1145 21.0244 22.2026 15.8185C22.2026 15.642 22.2026 15.5538 22.2026 15.3773C22.2026 9.99495 19.3836 5.49494 15.7717 5.05377H15.6836V4.78906C15.9479 4.78906 16.2122 4.78906 16.6526 4.78906C20.4407 5.142 23.3479 9.73024 23.3479 15.3773C23.3479 15.5538 23.3479 15.642 23.3479 15.8185C23.1717 21.2008 20.3526 25.6126 16.6526 25.8773C16.5645 25.8773 16.3003 25.8773 16.1241 25.8773ZM17.5336 5.31847C20.4407 6.73024 22.4669 10.7008 22.4669 15.3773C22.4669 15.5538 22.4669 15.642 22.4669 15.8185C22.3788 20.3185 20.2645 24.0244 17.5336 25.4361C20.5288 24.4655 22.9074 20.5832 22.9074 15.8185C22.9074 15.642 22.9074 15.5538 22.9074 15.3773C23.0836 10.5244 20.705 6.28906 17.5336 5.31847Z" fill="#B28445"/>
<path d="M19.9122 0.885742H16.5646C13.8337 0.885742 11.2789 2.38574 9.42891 5.20927C7.57891 7.94457 6.60986 11.474 6.60986 15.2681C6.60986 19.2387 7.66701 22.8563 9.6051 25.5916C11.4551 28.2387 13.9218 29.6504 16.4765 29.6504H19.8241C22.2908 29.474 24.5813 27.974 26.2551 25.3269C28.1051 22.5916 29.0741 19.0622 29.0741 15.2681C29.0741 11.6504 28.1051 8.0328 26.3432 5.38574C24.8456 2.73868 22.467 1.23868 19.9122 0.885742Z" fill="#875F27"/>
<path d="M25.8112 15.349C25.8112 11.5549 24.754 8.37845 23.1683 5.81962C22.0231 4.14315 20.7016 2.81962 19.1159 2.20198V1.49609H16.385C11.2754 1.49609 7.04688 7.67256 7.04688 15.2608C7.04688 19.2314 8.19211 22.7608 9.95402 25.3196C11.6278 27.6137 13.9183 29.1137 16.385 29.1137H19.204V28.4961C23.0802 26.6432 25.8112 21.5255 25.8112 15.349Z" fill="#F8B828"/>
<path d="M19.3802 29.2108H16.4731C14.0064 29.2108 11.7159 27.7991 9.95402 25.2402C8.10402 22.5932 7.04688 18.9755 7.04688 15.1814C7.04688 7.50494 11.3635 1.24023 16.4731 1.24023H19.3802V1.85788C20.8778 2.652 22.2874 3.79906 23.3445 5.47553C25.0183 8.12259 25.9874 11.4755 25.9874 15.0932C25.9874 21.1814 23.3445 26.4755 19.4683 28.3285L19.3802 29.2108ZM16.5612 1.59318C11.5397 1.59318 7.39926 7.68141 7.39926 15.2696C7.39926 19.0638 8.4564 22.5932 10.2183 25.152C11.8921 27.6226 14.1826 28.9461 16.5612 28.9461H19.204V28.3285H19.2921C21.1421 27.4461 22.7278 25.7696 23.9612 23.4755C25.1945 21.1814 25.8112 18.1814 25.8112 15.2696C25.8112 11.7402 24.8421 8.38729 23.2564 5.82847C22.1112 4.152 20.7016 2.9167 19.204 2.29906H19.1159V1.59318H16.5612Z" fill="#B28445"/>
<path d="M25.9889 5.72197C24.3151 3.07491 21.9365 1.39844 19.2937 1.39844C14.1841 1.39844 9.95557 7.57491 9.95557 15.1631C9.95557 19.1337 11.1008 22.6631 12.8627 25.222C14.5365 27.5161 16.827 29.0161 19.2937 29.0161C24.4032 29.0161 28.6318 22.8396 28.6318 15.2514C28.6318 11.6337 27.6627 8.28079 25.9889 5.72197ZM19.7341 25.6631C19.5579 25.6631 19.4699 25.6631 19.2937 25.6631C17.4437 25.6631 15.7699 24.5161 14.4484 22.8396C13.127 21.0749 12.246 18.5161 12.246 15.6926C12.246 15.5161 12.246 15.4278 12.246 15.2514C12.246 9.60432 15.4175 4.83961 19.2056 4.83961C19.3818 4.83961 19.4699 4.83961 19.646 4.83961C23.2579 5.19256 26.1651 9.69255 26.1651 15.2514C26.1651 15.4278 26.1651 15.5161 26.1651 15.6926C26.1651 21.0749 23.346 25.3102 19.7341 25.6631Z" fill="#F6E245"/>
<path d="M19.3818 29.1958C16.9151 29.1958 14.6246 27.7841 12.8627 25.2252C11.0127 22.5782 9.95557 18.9605 9.95557 15.1664C9.95557 7.57818 14.096 1.31348 19.3818 1.31348C22.0246 1.31348 24.4032 2.81348 26.1651 5.63701C27.8389 8.28406 28.8079 11.637 28.8079 15.2547C28.7199 22.9311 24.5794 29.1958 19.3818 29.1958ZM19.3818 1.57818C14.3603 1.57818 10.2199 7.66642 10.2199 15.2547C10.2199 19.0488 11.277 22.5782 13.0389 25.137C14.7127 27.6076 17.0032 28.9311 19.3818 28.9311C24.4032 28.9311 28.5437 22.8429 28.5437 15.2547C28.5437 11.7252 27.5746 8.3723 25.9889 5.81348C24.1389 3.07818 21.7603 1.57818 19.3818 1.57818ZM19.3818 25.8429C17.5318 25.8429 15.7699 24.7841 14.4484 22.9311C13.0389 21.0782 12.246 18.4311 12.246 15.6958C12.246 15.5194 12.246 15.4311 12.246 15.2547C12.246 9.43112 15.4175 4.66642 19.4699 4.66642C19.646 4.66642 19.7341 4.66642 19.9103 4.66642C23.6984 5.01936 26.6056 9.60759 26.6056 15.2547C26.6056 15.4311 26.6056 15.5194 26.6056 15.6958C26.4294 21.0782 23.6103 25.4899 19.9103 25.7547C19.646 25.8429 19.3818 25.8429 19.3818 25.8429ZM19.3818 5.01936C15.5937 5.01936 12.5103 9.60759 12.5103 15.3429C12.5103 15.5194 12.5103 15.6076 12.5103 15.7841C12.5984 18.5194 13.3913 21.0782 14.7127 22.7547C16.0341 24.5194 17.7079 25.5782 19.3818 25.5782C19.5579 25.5782 19.646 25.5782 19.8222 25.5782C23.346 25.2252 26.077 20.9899 26.2532 15.7841C26.2532 15.6076 26.2532 15.5194 26.2532 15.3429C26.2532 9.96054 23.4341 5.46054 19.8222 5.01936C19.646 5.01936 19.3818 5.01936 19.3818 5.01936Z" fill="#B28445"/>
<path d="M19.7352 4.96387C19.559 4.96387 19.471 4.96387 19.2948 4.96387C19.2067 4.96387 19.0305 4.96387 18.9424 4.96387H19.0305C22.6424 5.31681 25.5495 9.81681 25.5495 15.3756C25.5495 15.5521 25.5495 15.6403 25.5495 15.8168C25.3733 21.1992 22.5543 25.4345 19.0305 25.6992H18.9424C19.0305 25.6992 19.2067 25.6992 19.2948 25.6992C19.471 25.6992 19.559 25.6992 19.7352 25.6992C23.259 25.3462 26.1662 21.0227 26.2543 15.8168C26.2543 15.6403 26.2543 15.5521 26.2543 15.3756C26.3424 9.81681 23.4352 5.31681 19.7352 4.96387Z" fill="#F8B218"/>
<path d="M19.3822 25.8734C19.2941 25.8734 19.1179 25.8734 19.0298 25.8734V25.6087H19.1179C22.6417 25.2557 25.3726 21.0205 25.5488 15.8146C25.5488 15.6381 25.5488 15.5499 25.5488 15.3734C25.5488 9.99104 22.7298 5.49104 19.1179 5.04986H19.0298V4.78516C19.2941 4.78516 19.5584 4.78516 19.9988 4.78516C23.7869 5.1381 26.6941 9.72633 26.6941 15.3734C26.6941 15.5499 26.6941 15.6381 26.6941 15.8146C26.4298 21.1969 23.6107 25.5205 19.9107 25.8734C19.6465 25.8734 19.3822 25.8734 19.3822 25.8734ZM20.7036 5.31457C23.6107 6.72633 25.6369 10.6969 25.6369 15.3734C25.6369 15.5499 25.6369 15.6381 25.6369 15.8146C25.5488 20.3146 23.4345 24.0205 20.7036 25.4322C23.6988 24.4616 26.0774 20.5793 26.0774 15.8146C26.0774 15.6381 26.0774 15.5499 26.0774 15.3734C26.1655 10.5205 23.875 6.28516 20.7036 5.31457Z" fill="#B28445"/>
<path d="M17.2669 18.2627V21.6156H16.2979V20.2039L17.2669 18.2627Z" fill="#F6E245"/>
<path d="M18.4163 16.0674L18.8567 16.8615V16.9497V21.6262H17.8877V17.038L18.4163 16.0674Z" fill="#F6E245"/>
<path d="M20.3528 16.4189V21.6248H19.3838V18.4484L19.6481 18.2719L20.2647 16.8601L20.3528 16.4189Z" fill="#F6E245"/>
<path d="M22.0252 13.2373V21.6197H21.0562V15.1785L22.0252 13.2373Z" fill="#F6E245"/>
<path d="M19.3821 16.7448H19.1178L18.4131 15.333H18.8536L19.3821 16.7448Z" fill="#875F27"/>
<path d="M16.2964 20.1914H15.856V21.6914H16.2964V20.1914Z" fill="#875F27"/>
<path d="M16.2964 20.2029H15.856L16.825 18.2617H17.2655L16.2964 20.2029Z" fill="#875F27"/>
<path d="M17.9722 17.0156H17.5317V21.6039H17.9722V17.0156Z" fill="#875F27"/>
<path d="M17.8841 17.0311H17.5317L17.9722 16.0605H18.4127L17.8841 17.0311Z" fill="#875F27"/>
<path d="M20.26 16.8533H19.7314L19.9957 16.4121H20.3481L20.26 16.8533Z" fill="#875F27"/>
<path d="M19.6443 18.2653H19.1157L19.7324 16.8535H20.261L19.6443 18.2653Z" fill="#875F27"/>
<path d="M19.38 18.4382H19.1157V18.2617H19.6443L19.38 18.4382Z" fill="#875F27"/>
<path d="M19.5562 18.4316H19.1157V21.7846H19.5562V18.4316Z" fill="#875F27"/>
<path d="M21.1456 15.1719H20.7051V21.6131H21.1456V15.1719Z" fill="#875F27"/>
<path d="M21.0575 15.1775H20.7051L21.6741 13.2363H22.0265L21.0575 15.1775Z" fill="#875F27"/>
<path d="M22.6382 11.286H22.1977L22.0215 10.5801H22.462L22.6382 11.286Z" fill="#875F27"/>
<path d="M21.7585 9.15636H21.318L21.0537 8.62695H21.4942L21.7585 9.15636Z" fill="#875F27"/>
<path d="M19.38 13.8601H19.1157L21.3181 9.18359H21.7586L19.38 13.8601Z" fill="#875F27"/>
<path d="M18.8551 15.3648H18.4146L17.9741 14.4824H18.5027L18.8551 15.3648Z" fill="#875F27"/>
<path d="M17.7925 13.054H17.3521L17.9687 11.7305H18.4973L17.7925 13.054Z" fill="#875F27"/>
<path d="M15.5012 18.0076H14.9727L17.3512 13.0664H17.7917L15.5012 18.0076Z" fill="#875F27"/>
<path d="M16.1179 19.2255H15.6774L14.9727 17.9902H15.5012L16.1179 19.2255Z" fill="#875F27"/>
<path d="M21.5002 8.62793H22.6455V11.275L22.4693 10.5691L20.1788 15.3338L19.386 16.7456L18.8574 15.3338L18.505 14.4515L16.1264 19.2162L15.5098 17.9809L17.8002 13.0397L18.505 11.7162L19.1217 13.0397L19.386 13.8338L21.7645 9.15734L21.5002 8.62793Z" fill="#F6E245"/>
</svg>
